solid number12
facet normal 8.578861519675068e-1 -3.1562154123945657e-1 4.054804470847069e-1
outer loop
vertex 7.073572275178898e-1 -3.0984954459082525e-1 -6.35325910375976e-1
vertex 7.937624003594226e-1 5.979124044633368e-1 -1.1154375089855528e-1
vertex 1.73536968583701e-1 -9.843416915583031e-1 -3.092498657910816e-2
endloop
endfacet
facet normal 6.973681044315397e-2 4.93570029048083e-1 -8.669056486692714e-1
outer loop
vertex 7.073572275178898e-1 -3.0984954459082525e-1 -6.35325910375976e-1
vertex -1.738351151582836e-1 9.84299007670397e-1 3.060745394471509e-2
vertex 7.937624003594226e-1 5.979124044633368e-1 -1.1154375089855528e-1
endloop
endfacet
facet normal 7.01945069286151e-2 4.935211919727517e-1 -8.668965130111224e-1
outer loop
vertex 7.073572275178898e-1 -3.0984954459082525e-1 -6.35325910375976e-1
vertex -3.133271309708471e-1 -4.839426907929227e-1 -8.170835826435893e-1
vertex 7.937624003594226e-1 5.979124044633368e-1 -1.1154375089855528e-1
endloop
endfacet
facet normal 4.6346748259208875e-1 -4.755418545562062e-1 7.47701703318239e-1
outer loop
vertex 7.073572275178898e-1 -3.0984954459082525e-1 -6.35325910375976e-1
vertex 7.937624003594226e-1 5.979124044633368e-1 -1.1154375089855528e-1
vertex -7.072720160862481e-1 3.0962566891554877e-1 6.355298894701121e-1
endloop
endfacet
facet normal 6.590823578662718e-1 3.2781870234887256e-1 -6.768643467783902e-1
outer loop
vertex 7.073572275178898e-1 -3.0984954459082525e-1 -6.35325910375976e-1
vertex 6.993911339357113e-2 4.93604164860872e-1 -8.668699146064087e-1
vertex 7.937624003594226e-1 5.979124044633368e-1 -1.1154375089855528e-1
endloop
endfacet
facet normal 8.580491810010519e-1 -3.1549485952137335e-1 4.0523400227401063e-1
outer loop
vertex 7.073572275178898e-1 -3.0984954459082525e-1 -6.35325910375976e-1
vertex 7.937624003594226e-1 5.979124044633368e-1 -1.1154375089855528e-1
vertex -6.96885475261667e-2 -4.9385037585328756e-1 8.667498558484217e-1
endloop
endfacet
facet normal 4.6337124354672826e-1 -4.755603301453425e-1 7.477495991613847e-1
outer loop
vertex 7.073572275178898e-1 -3.0984954459082525e-1 -6.35325910375976e-1
vertex 7.937624003594226e-1 5.979124044633368e-1 -1.1154375089855528e-1
vertex -7.938015081328813e-1 -5.97816342601364e-1 1.1178007964164176e-1
endloop
endfacet
facet normal 9.896051985759078e-1 -1.1480861054012474e-2 -1.4335180773536277e-1
outer loop
vertex 7.073572275178898e-1 -3.0984954459082525e-1 -6.35325910375976e-1
vertex 7.937624003594226e-1 5.979124044633368e-1 -1.1154375089855528e-1
vertex 8.580195132368791e-1 -3.15609841906056e-1 4.0520728349424273e-1
endloop
endfacet
facet normal 8.580101882268191e-1 -3.155251680971452e-1 4.052929621844508e-1
outer loop
vertex 7.073572275178898e-1 -3.0984954459082525e-1 -6.35325910375976e-1
vertex 7.937624003594226e-1 5.979124044633368e-1 -1.1154375089855528e-1
vertex 3.1343034368616135e-1 4.842676785458529e-1 8.168514156029757e-1
endloop
endfacet
facet normal 6.973457402764646e-2 4.9357026741711907e-1 -8.669056928564814e-1
outer loop
vertex 7.073572275178898e-1 -3.0984954459082525e-1 -6.35325910375976e-1
vertex -8.580407506826113e-1 3.156959486518509e-1 -4.050952211182314e-1
vertex 7.937624003594226e-1 5.979124044633368e-1 -1.1154375089855528e-1
endloop
endfacet
facet normal -6.884182736139719e-1 -9.901490531351716e-2 -7.185237150436399e-1
outer loop
vertex 7.073572275178898e-1 -3.0984954459082525e-1 -6.35325910375976e-1
vertex 1.73536968583701e-1 -9.843416915583031e-1 -3.092498657910816e-2
vertex -1.738351151582836e-1 9.84299007670397e-1 3.060745394471509e-2
endloop
endfacet
facet normal 2.3800355336262569e-1 -7.458536016221757e-1 -6.221388217544317e-1
outer loop
vertex 7.073572275178898e-1 -3.0984954459082525e-1 -6.35325910375976e-1
vertex 1.73536968583701e-1 -9.843416915583031e-1 -3.092498657910816e-2
vertex -3.133271309708471e-1 -4.839426907929227e-1 -8.170835826435893e-1
endloop
endfacet
facet normal 6.88607184536213e-1 9.873739165996802e-2 7.183808689638779e-1
outer loop
vertex 7.073572275178898e-1 -3.0984954459082525e-1 -6.35325910375976e-1
vertex -7.072720160862481e-1 3.0962566891554877e-1 6.355298894701121e-1
vertex 1.73536968583701e-1 -9.843416915583031e-1 -3.092498657910816e-2
endloop
endfacet
facet normal -3.1338279883906733e-1 -4.840662091254663e-1 -8.169890614779938e-1
outer loop
vertex 7.073572275178898e-1 -3.0984954459082525e-1 -6.35325910375976e-1
vertex 1.73536968583701e-1 -9.843416915583031e-1 -3.092498657910816e-2
vertex 6.993911339357113e-2 4.93604164860872e-1 -8.668699146064087e-1
endloop
endfacet
facet normal 8.579269708023712e-1 -3.1598515172559605e-1 4.0511072148095445e-1
outer loop
vertex 7.073572275178898e-1 -3.0984954459082525e-1 -6.35325910375976e-1
vertex -6.96885475261667e-2 -4.9385037585328756e-1 8.667498558484217e-1
vertex 1.73536968583701e-1 -9.843416915583031e-1 -3.092498657910816e-2
endloop
endfacet
facet normal -3.138202364701847e-1 -4.837417489381222e-1 -8.170133288484859e-1
outer loop
vertex 7.073572275178898e-1 -3.0984954459082525e-1 -6.35325910375976e-1
vertex 1.73536968583701e-1 -9.843416915583031e-1 -3.092498657910816e-2
vertex -7.938015081328813e-1 -5.97816342601364e-1 1.1178007964164176e-1
endloop
endfacet
facet normal 7.294135440353321e-1 -6.752761754293057e-1 -1.093524973440765e-1
outer loop
vertex 7.073572275178898e-1 -3.0984954459082525e-1 -6.35325910375976e-1
vertex 8.580195132368791e-1 -3.15609841906056e-1 4.0520728349424273e-1
vertex 1.73536968583701e-1 -9.843416915583031e-1 -3.092498657910816e-2
endloop
endfacet
facet normal 8.578980369953808e-1 -3.1572720766999e-1 4.0537302383901114e-1
outer loop
vertex 7.073572275178898e-1 -3.0984954459082525e-1 -6.35325910375976e-1
vertex 3.1343034368616135e-1 4.842676785458529e-1 8.168514156029757e-1
vertex 1.73536968583701e-1 -9.843416915583031e-1 -3.092498657910816e-2
endloop
endfacet
facet normal -3.135477352942531e-1 -4.839438959789913e-1 -8.169982394329379e-1
outer loop
vertex 7.073572275178898e-1 -3.0984954459082525e-1 -6.35325910375976e-1
vertex 1.73536968583701e-1 -9.843416915583031e-1 -3.092498657910816e-2
vertex -8.580407506826113e-1 3.156959486518509e-1 -4.050952211182314e-1
endloop
endfacet
facet normal 7.012936934324122e-2 4.9376414245506717e-1 -8.667634297668144e-1
outer loop
vertex 7.073572275178898e-1 -3.0984954459082525e-1 -6.35325910375976e-1
vertex -3.133271309708471e-1 -4.839426907929227e-1 -8.170835826435893e-1
vertex -1.738351151582836e-1 9.84299007670397e-1 3.060745394471509e-2
endloop
endfacet
facet normal 6.887178874535151e-1 9.93936055879822e-2 7.181842261354588e-1
outer loop
vertex 7.073572275178898e-1 -3.0984954459082525e-1 -6.35325910375976e-1
vertex -1.738351151582836e-1 9.84299007670397e-1 3.060745394471509e-2
vertex -7.072720160862481e-1 3.0962566891554877e-1 6.355298894701121e-1
endloop
endfacet
facet normal 7.939007031746957e-1 5.977924572088598e-1 -1.1120185071714103e-1
outer loop
vertex 7.073572275178898e-1 -3.0984954459082525e-1 -6.35325910375976e-1
vertex 6.993911339357113e-2 4.93604164860872e-1 -8.668699146064087e-1
vertex -1.738351151582836e-1 9.84299007670397e-1 3.060745394471509e-2
endloop
endfacet
facet normal 8.24356062182728e-1 3.2159651420853275e-1 4.658462888029776e-1
outer loop
vertex 7.073572275178898e-1 -3.0984954459082525e-1 -6.35325910375976e-1
vertex -1.738351151582836e-1 9.84299007670397e-1 3.060745394471509e-2
vertex -6.96885475261667e-2 -4.9385037585328756e-1 8.667498558484217e-1
endloop
endfacet
facet normal -4.622181178550786e-1 1.3616721421412156e-1 -8.762493374032724e-1
outer loop
vertex 7.073572275178898e-1 -3.0984954459082525e-1 -6.35325910375976e-1
vertex -7.938015081328813e-1 -5.97816342601364e-1 1.1178007964164176e-1
vertex -1.738351151582836e-1 9.84299007670397e-1 3.060745394471509e-2
endloop
endfacet
facet normal 7.937546439381145e-1 5.979083923335604e-1 -1.1162042646296601e-1
outer loop
vertex 7.073572275178898e-1 -3.0984954459082525e-1 -6.35325910375976e-1
vertex -1.738351151582836e-1 9.84299007670397e-1 3.060745394471509e-2
vertex 8.580195132368791e-1 -3.15609841906056e-1 4.0520728349424273e-1
endloop
endfacet
facet normal 7.9374335167442e-1 5.979173448837516e-1 -1.1165276691521248e-1
outer loop
vertex 7.073572275178898e-1 -3.0984954459082525e-1 -6.35325910375976e-1
vertex -1.738351151582836e-1 9.84299007670397e-1 3.060745394471509e-2
vertex 3.1343034368616135e-1 4.842676785458529e-1 8.168514156029757e-1
endloop
endfacet
facet normal 6.973370650496272e-2 4.935684938179242e-1 -8.669067724313759e-1
outer loop
vertex 7.073572275178898e-1 -3.0984954459082525e-1 -6.35325910375976e-1
vertex -8.580407506826113e-1 3.156959486518509e-1 -4.050952211182314e-1
vertex -1.738351151582836e-1 9.84299007670397e-1 3.060745394471509e-2
endloop
endfacet
facet normal 6.0744376871912475e-2 -8.689385011508358e-1 4.9117817734115793e-1
outer loop
vertex 7.073572275178898e-1 -3.0984954459082525e-1 -6.35325910375976e-1
vertex -7.072720160862481e-1 3.0962566891554877e-1 6.355298894701121e-1
vertex -3.133271309708471e-1 -4.839426907929227e-1 -8.170835826435893e-1
endloop
endfacet
facet normal 1.9469241672844448e-1 -1.2587517738230325e-1 -9.727539784485137e-1
outer loop
vertex 7.073572275178898e-1 -3.0984954459082525e-1 -6.35325910375976e-1
vertex -3.133271309708471e-1 -4.839426907929227e-1 -8.170835826435893e-1
vertex 6.993911339357113e-2 4.93604164860872e-1 -8.668699146064087e-1
endloop
endfacet
facet normal 1.7339796152874457e-1 -9.843675544611884e-1 -3.0881461457892428e-2
outer loop
vertex 7.073572275178898e-1 -3.0984954459082525e-1 -6.35325910375976e-1
vertex -6.96885475261667e-2 -4.9385037585328756e-1 8.667498558484217e-1
vertex -3.133271309708471e-1 -4.839426907929227e-1 -8.170835826435893e-1
endloop
endfacet
facet normal 1.7341373050416997e-1 -9.843618217662545e-1 -3.0975505187931778e-2
outer loop
vertex 7.073572275178898e-1 -3.0984954459082525e-1 -6.35325910375976e-1
vertex -7.938015081328813e-1 -5.97816342601364e-1 1.1178007964164176e-1
vertex -3.133271309708471e-1 -4.839426907929227e-1 -8.170835826435893e-1
endloop
endfacet
facet normal 1.7334207920682876e-1 -9.843877931427679e-1 -3.0548261616086144e-2
outer loop
vertex 7.073572275178898e-1 -3.0984954459082525e-1 -6.35325910375976e-1
vertex 8.580195132368791e-1 -3.15609841906056e-1 4.0520728349424273e-1
vertex -3.133271309708471e-1 -4.839426907929227e-1 -8.170835826435893e-1
endloop
endfacet
facet normal -6.065044560904052e-2 8.68749264152102e-1 -4.915244037508272e-1
outer loop
vertex 7.073572275178898e-1 -3.0984954459082525e-1 -6.35325910375976e-1
vertex -3.133271309708471e-1 -4.839426907929227e-1 -8.170835826435893e-1
vertex 3.1343034368616135e-1 4.842676785458529e-1 8.168514156029757e-1
endloop
endfacet
facet normal 7.00231575021205e-2 4.94160160738676e-1 -8.66546301678196e-1
outer loop
vertex 7.073572275178898e-1 -3.0984954459082525e-1 -6.35325910375976e-1
vertex -3.133271309708471e-1 -4.839426907929227e-1 -8.170835826435893e-1
vertex -8.580407506826113e-1 3.156959486518509e-1 -4.050952211182314e-1
endloop
endfacet
facet normal -6.509393018654447e-1 -6.359059690935802e-1 -4.1461020701145596e-1
outer loop
vertex 7.073572275178898e-1 -3.0984954459082525e-1 -6.35325910375976e-1
vertex -7.072720160862481e-1 3.0962566891554877e-1 6.355298894701121e-1
vertex 6.993911339357113e-2 4.93604164860872e-1 -8.668699146064087e-1
endloop
endfacet
facet normal -6.509519125932762e-1 -6.358736276019095e-1 -4.146400091784968e-1
outer loop
vertex 7.073572275178898e-1 -3.0984954459082525e-1 -6.35325910375976e-1
vertex -6.96885475261667e-2 -4.9385037585328756e-1 8.667498558484217e-1
vertex -7.072720160862481e-1 3.0962566891554877e-1 6.355298894701121e-1
endloop
endfacet
facet normal 4.633567151675772e-1 -4.757126938435186e-1 7.476616797892316e-1
outer loop
vertex 7.073572275178898e-1 -3.0984954459082525e-1 -6.35325910375976e-1
vertex -7.072720160862481e-1 3.0962566891554877e-1 6.355298894701121e-1
vertex -7.938015081328813e-1 -5.97816342601364e-1 1.1178007964164176e-1
endloop
endfacet
facet normal -3.6446786785359464e-1 -9.299973733258102e-1 4.762414208516786e-2
outer loop
vertex 7.073572275178898e-1 -3.0984954459082525e-1 -6.35325910375976e-1
vertex 8.580195132368791e-1 -3.15609841906056e-1 4.0520728349424273e-1
vertex -7.072720160862481e-1 3.0962566891554877e-1 6.355298894701121e-1
endloop
endfacet
facet normal 6.128779280666827e-2 -8.686403877919694e-1 4.9163775602520987e-1
outer loop
vertex 7.073572275178898e-1 -3.0984954459082525e-1 -6.35325910375976e-1
vertex 3.1343034368616135e-1 4.842676785458529e-1 8.168514156029757e-1
vertex -7.072720160862481e-1 3.0962566891554877e-1 6.355298894701121e-1
endloop
endfacet
facet normal -3.6463974870805377e-1 -9.299411700825071e-1 4.7405420024559546e-2
outer loop
vertex 7.073572275178898e-1 -3.0984954459082525e-1 -6.35325910375976e-1
vertex -7.072720160862481e-1 3.0962566891554877e-1 6.355298894701121e-1
vertex -8.580407506826113e-1 3.156959486518509e-1 -4.050952211182314e-1
endloop
endfacet
facet normal -6.509283126670086e-1 -6.359033710668406e-1 -4.1463144409741703e-1
outer loop
vertex 7.073572275178898e-1 -3.0984954459082525e-1 -6.35325910375976e-1
vertex -6.96885475261667e-2 -4.9385037585328756e-1 8.667498558484217e-1
vertex 6.993911339357113e-2 4.93604164860872e-1 -8.668699146064087e-1
endloop
endfacet
facet normal -3.1362900315292264e-1 -4.842097832337495e-1 -8.168094846425508e-1
outer loop
vertex 7.073572275178898e-1 -3.0984954459082525e-1 -6.35325910375976e-1
vertex -7.938015081328813e-1 -5.97816342601364e-1 1.1178007964164176e-1
vertex 6.993911339357113e-2 4.93604164860872e-1 -8.668699146064087e-1
endloop
endfacet
facet normal 7.939220062223246e-1 5.976813845632519e-1 -1.116459161029778e-1
outer loop
vertex 7.073572275178898e-1 -3.0984954459082525e-1 -6.35325910375976e-1
vertex 6.993911339357113e-2 4.93604164860872e-1 -8.668699146064087e-1
vertex 8.580195132368791e-1 -3.15609841906056e-1 4.0520728349424273e-1
endloop
endfacet
facet normal 7.939149049167387e-1 5.977185209605061e-1 -1.1149750424036885e-1
outer loop
vertex 7.073572275178898e-1 -3.0984954459082525e-1 -6.35325910375976e-1
vertex 6.993911339357113e-2 4.93604164860872e-1 -8.668699146064087e-1
vertex 3.1343034368616135e-1 4.842676785458529e-1 8.168514156029757e-1
endloop
endfacet
facet normal -3.136258254506449e-1 -4.842079303736843e-1 -8.168118031551913e-1
outer loop
vertex 7.073572275178898e-1 -3.0984954459082525e-1 -6.35325910375976e-1
vertex -8.580407506826113e-1 3.156959486518509e-1 -4.050952211182314e-1
vertex 6.993911339357113e-2 4.93604164860872e-1 -8.668699146064087e-1
endloop
endfacet
facet normal 1.7348136913528434e-1 -9.843542621478e-1 -3.0836685204594486e-2
outer loop
vertex 7.073572275178898e-1 -3.0984954459082525e-1 -6.35325910375976e-1
vertex -6.96885475261667e-2 -4.9385037585328756e-1 8.667498558484217e-1
vertex -7.938015081328813e-1 -5.97816342601364e-1 1.1178007964164176e-1
endloop
endfacet
facet normal 1.7387568015349789e-1 -9.842912972702955e-1 -3.062498929170685e-2
outer loop
vertex 7.073572275178898e-1 -3.0984954459082525e-1 -6.35325910375976e-1
vertex 8.580195132368791e-1 -3.15609841906056e-1 4.0520728349424273e-1
vertex -6.96885475261667e-2 -4.9385037585328756e-1 8.667498558484217e-1
endloop
endfacet
facet normal 8.580672290286936e-1 -3.154223668101616e-1 4.052522189734379e-1
outer loop
vertex 7.073572275178898e-1 -3.0984954459082525e-1 -6.35325910375976e-1
vertex 3.1343034368616135e-1 4.842676785458529e-1 8.168514156029757e-1
vertex -6.96885475261667e-2 -4.9385037585328756e-1 8.667498558484217e-1
endloop
endfacet
facet normal -3.9175708578503876e-1 -8.666896407511563e-1 -3.0882916370033053e-1
outer loop
vertex 7.073572275178898e-1 -3.0984954459082525e-1 -6.35325910375976e-1
vertex -6.96885475261667e-2 -4.9385037585328756e-1 8.667498558484217e-1
vertex -8.580407506826113e-1 3.156959486518509e-1 -4.050952211182314e-1
endloop
endfacet
facet normal 1.736035687772134e-1 -9.843405436908789e-1 -3.0585861997991737e-2
outer loop
vertex 7.073572275178898e-1 -3.0984954459082525e-1 -6.35325910375976e-1
vertex 8.580195132368791e-1 -3.15609841906056e-1 4.0520728349424273e-1
vertex -7.938015081328813e-1 -5.97816342601364e-1 1.1178007964164176e-1
endloop
endfacet
facet normal 4.0351907342628945e-1 -7.522657095575523e-1 5.208345798860337e-1
outer loop
vertex 7.073572275178898e-1 -3.0984954459082525e-1 -6.35325910375976e-1
vertex 3.1343034368616135e-1 4.842676785458529e-1 8.168514156029757e-1
vertex -7.938015081328813e-1 -5.97816342601364e-1 1.1178007964164176e-1
endloop
endfacet
facet normal -3.136274772965507e-1 -4.8421351619782027e-1 -8.168078575870489e-1
outer loop
vertex 7.073572275178898e-1 -3.0984954459082525e-1 -6.35325910375976e-1
vertex -7.938015081328813e-1 -5.97816342601364e-1 1.1178007964164176e-1
vertex -8.580407506826113e-1 3.156959486518509e-1 -4.050952211182314e-1
endloop
endfacet
facet normal 7.937755703796363e-1 5.978800153569285e-1 -1.116236135648802e-1
outer loop
vertex 7.073572275178898e-1 -3.0984954459082525e-1 -6.35325910375976e-1
vertex 3.1343034368616135e-1 4.842676785458529e-1 8.168514156029757e-1
vertex 8.580195132368791e-1 -3.15609841906056e-1 4.0520728349424273e-1
endloop
endfacet
facet normal 3.6460515354153294e-1 9.299425253332335e-1 -4.764432377318067e-2
outer loop
vertex 7.073572275178898e-1 -3.0984954459082525e-1 -6.35325910375976e-1
vertex -8.580407506826113e-1 3.156959486518509e-1 -4.050952211182314e-1
vertex 8.580195132368791e-1 -3.15609841906056e-1 4.0520728349424273e-1
endloop
endfacet
facet normal 2.8945824298551803e-1 8.7069770799326e-1 -3.976171863275288e-1
outer loop
vertex 7.073572275178898e-1 -3.0984954459082525e-1 -6.35325910375976e-1
vertex -8.580407506826113e-1 3.156959486518509e-1 -4.050952211182314e-1
vertex 3.1343034368616135e-1 4.842676785458529e-1 8.168514156029757e-1
endloop
endfacet
facet normal -1.431289492711317e-1 5.678487582135752e-3 -9.896877581638167e-1
outer loop
vertex 7.937624003594226e-1 5.979124044633368e-1 -1.1154375089855528e-1
vertex 1.73536968583701e-1 -9.843416915583031e-1 -3.092498657910816e-2
vertex -1.738351151582836e-1 9.84299007670397e-1 3.060745394471509e-2
endloop
endfacet
facet normal 7.074822120939198e-1 -3.0969273251302054e-1 -6.352631982094606e-1
outer loop
vertex 7.937624003594226e-1 5.979124044633368e-1 -1.1154375089855528e-1
vertex 1.73536968583701e-1 -9.843416915583031e-1 -3.092498657910816e-2
vertex -3.133271309708471e-1 -4.839426907929227e-1 -8.170835826435893e-1
endloop
endfacet
facet normal 4.622932407934691e-1 -1.365723527917069e-1 8.761466498079014e-1
outer loop
vertex 7.937624003594226e-1 5.979124044633368e-1 -1.1154375089855528e-1
vertex -7.072720160862481e-1 3.0962566891554877e-1 6.355298894701121e-1
vertex 1.73536968583701e-1 -9.843416915583031e-1 -3.092498657910816e-2
endloop
endfacet
facet normal 7.075078377547257e-1 -3.0970111508127757e-1 -6.352305713936051e-1
outer loop
vertex 7.937624003594226e-1 5.979124044633368e-1 -1.1154375089855528e-1
vertex 1.73536968583701e-1 -9.843416915583031e-1 -3.092498657910816e-2
vertex 6.993911339357113e-2 4.93604164860872e-1 -8.668699146064087e-1
endloop
endfacet
facet normal 8.580744094103749e-1 -3.1571953360124394e-1 4.0500553578642495e-1
outer loop
vertex 7.937624003594226e-1 5.979124044633368e-1 -1.1154375089855528e-1
vertex -6.96885475261667e-2 -4.9385037585328756e-1 8.667498558484217e-1
vertex 1.73536968583701e-1 -9.843416915583031e-1 -3.092498657910816e-2
endloop
endfacet
facet normal 1.4364037590956585e-1 -5.882797166977897e-3 9.896124671334992e-1
outer loop
vertex 7.937624003594226e-1 5.979124044633368e-1 -1.1154375089855528e-1
vertex -7.938015081328813e-1 -5.97816342601364e-1 1.1178007964164176e-1
vertex 1.73536968583701e-1 -9.843416915583031e-1 -3.092498657910816e-2
endloop
endfacet
facet normal 7.073851892346089e-1 -3.0966099349589177e-1 -6.353867036369694e-1
outer loop
vertex 7.937624003594226e-1 5.979124044633368e-1 -1.1154375089855528e-1
vertex 8.580195132368791e-1 -3.15609841906056e-1 4.0520728349424273e-1
vertex 1.73536968583701e-1 -9.843416915583031e-1 -3.092498657910816e-2
endloop
endfacet
facet normal 8.579746978030629e-1 -3.1566762698622763e-1 4.052571618153423e-1
outer loop
vertex 7.937624003594226e-1 5.979124044633368e-1 -1.1154375089855528e-1
vertex 3.1343034368616135e-1 4.842676785458529e-1 8.168514156029757e-1
vertex 1.73536968583701e-1 -9.843416915583031e-1 -3.092498657910816e-2
endloop
endfacet
facet normal 1.9437423380612337e-1 -1.25760076779637e-1 -9.728324934543781e-1
outer loop
vertex 7.937624003594226e-1 5.979124044633368e-1 -1.1154375089855528e-1
vertex 1.73536968583701e-1 -9.843416915583031e-1 -3.092498657910816e-2
vertex -8.580407506826113e-1 3.156959486518509e-1 -4.050952211182314e-1
endloop
endfacet
facet normal 6.984642700152853e-2 4.937942963699254e-1 -8.667690981499342e-1
outer loop
vertex 7.937624003594226e-1 5.979124044633368e-1 -1.1154375089855528e-1
vertex -3.133271309708471e-1 -4.839426907929227e-1 -8.170835826435893e-1
vertex -1.738351151582836e-1 9.84299007670397e-1 3.060745394471509e-2
endloop
endfacet
facet normal 3.134456542808691e-1 4.844633664929966e-1 8.167294952055488e-1
outer loop
vertex 7.937624003594226e-1 5.979124044633368e-1 -1.1154375089855528e-1
vertex -1.738351151582836e-1 9.84299007670397e-1 3.060745394471509e-2
vertex -7.072720160862481e-1 3.0962566891554877e-1 6.355298894701121e-1
endloop
endfacet
facet normal 2.893285209611537e-1 8.707877337893075e-1 -3.9751443953712345e-1
outer loop
vertex 7.937624003594226e-1 5.979124044633368e-1 -1.1154375089855528e-1
vertex 6.993911339357113e-2 4.93604164860872e-1 -8.668699146064087e-1
vertex -1.738351151582836e-1 9.84299007670397e-1 3.060745394471509e-2
endloop
endfacet
facet normal 3.1336403748446323e-1 4.841872206755961e-1 8.169245469110825e-1
outer loop
vertex 7.937624003594226e-1 5.979124044633368e-1 -1.1154375089855528e-1
vertex -1.738351151582836e-1 9.84299007670397e-1 3.060745394471509e-2
vertex -6.96885475261667e-2 -4.9385037585328756e-1 8.667498558484217e-1
endloop
endfacet
facet normal 1.4325413803043327e-1 -5.358978996594862e-3 9.896714269298027e-1
outer loop
vertex 7.937624003594226e-1 5.979124044633368e-1 -1.1154375089855528e-1
vertex -1.738351151582836e-1 9.84299007670397e-1 3.060745394471509e-2
vertex -7.938015081328813e-1 -5.97816342601364e-1 1.1178007964164176e-1
endloop
endfacet
facet normal 3.133562156803948e-1 4.8416075970165123e-1 8.169432298878435e-1
outer loop
vertex 7.937624003594226e-1 5.979124044633368e-1 -1.1154375089855528e-1
vertex -1.738351151582836e-1 9.84299007670397e-1 3.060745394471509e-2
vertex 8.580195132368791e-1 -3.15609841906056e-1 4.0520728349424273e-1
endloop
endfacet
facet normal 3.9150651101822e-1 8.668597696704364e-1 3.086693887596536e-1
outer loop
vertex 7.937624003594226e-1 5.979124044633368e-1 -1.1154375089855528e-1
vertex -1.738351151582836e-1 9.84299007670397e-1 3.060745394471509e-2
vertex 3.1343034368616135e-1 4.842676785458529e-1 8.168514156029757e-1
endloop
endfacet
facet normal 6.973540771294695e-2 4.935671589823743e-1 -8.669073955649337e-1
outer loop
vertex 7.937624003594226e-1 5.979124044633368e-1 -1.1154375089855528e-1
vertex -8.580407506826113e-1 3.156959486518509e-1 -4.050952211182314e-1
vertex -1.738351151582836e-1 9.84299007670397e-1 3.060745394471509e-2
endloop
endfacet
facet normal -4.035797014875317e-1 7.524526194205602e-1 -5.205175117845435e-1
outer loop
vertex 7.937624003594226e-1 5.979124044633368e-1 -1.1154375089855528e-1
vertex -3.133271309708471e-1 -4.839426907929227e-1 -8.170835826435893e-1
vertex -7.072720160862481e-1 3.0962566891554877e-1 6.355298894701121e-1
endloop
endfacet
facet normal 7.075010855025672e-1 -3.097411493629214e-1 -6.352185721497959e-1
outer loop
vertex 7.937624003594226e-1 5.979124044633368e-1 -1.1154375089855528e-1
vertex -3.133271309708471e-1 -4.839426907929227e-1 -8.170835826435893e-1
vertex 6.993911339357113e-2 4.93604164860872e-1 -8.668699146064087e-1
endloop
endfacet
facet normal 7.295329810397828e-1 -6.751182734599003e-1 -1.0953057297271426e-1
outer loop
vertex 7.937624003594226e-1 5.979124044633368e-1 -1.1154375089855528e-1
vertex -6.96885475261667e-2 -4.9385037585328756e-1 8.667498558484217e-1
vertex -3.133271309708471e-1 -4.839426907929227e-1 -8.170835826435893e-1
endloop
endfacet
facet normal -6.064432135594043e-1 7.640786680014604e-1 -2.2002367561891326e-1
outer loop
vertex 7.937624003594226e-1 5.979124044633368e-1 -1.1154375089855528e-1
vertex -3.133271309708471e-1 -4.839426907929227e-1 -8.170835826435893e-1
vertex -7.938015081328813e-1 -5.97816342601364e-1 1.1178007964164176e-1
endloop
endfacet
facet normal 7.074549167460977e-1 -3.0962272295185433e-1 -6.353277187433672e-1
outer loop
vertex 7.937624003594226e-1 5.979124044633368e-1 -1.1154375089855528e-1
vertex 8.580195132368791e-1 -3.15609841906056e-1 4.0520728349424273e-1
vertex -3.133271309708471e-1 -4.839426907929227e-1 -8.170835826435893e-1
endloop
endfacet
facet normal -6.063599202698257e-1 7.640984047955964e-1 -2.201846381544261e-1
outer loop
vertex 7.937624003594226e-1 5.979124044633368e-1 -1.1154375089855528e-1
vertex -3.133271309708471e-1 -4.839426907929227e-1 -8.170835826435893e-1
vertex 3.1343034368616135e-1 4.842676785458529e-1 8.168514156029757e-1
endloop
endfacet
facet normal 6.962865789809758e-2 4.9396509942919586e-1 -8.666892929679092e-1
outer loop
vertex 7.937624003594226e-1 5.979124044633368e-1 -1.1154375089855528e-1
vertex -3.133271309708471e-1 -4.839426907929227e-1 -8.170835826435893e-1
vertex -8.580407506826113e-1 3.156959486518509e-1 -4.050952211182314e-1
endloop
endfacet
facet normal -1.7380241170580374e-1 9.843042648857322e-1 3.062410509720513e-2
outer loop
vertex 7.937624003594226e-1 5.979124044633368e-1 -1.1154375089855528e-1
vertex 6.993911339357113e-2 4.93604164860872e-1 -8.668699146064087e-1
vertex -7.072720160862481e-1 3.0962566891554877e-1 6.355298894701121e-1
endloop
endfacet
facet normal 3.1364321473166545e-1 4.8398029624320454e-1 8.169400263796153e-1
outer loop
vertex 7.937624003594226e-1 5.979124044633368e-1 -1.1154375089855528e-1
vertex -7.072720160862481e-1 3.0962566891554877e-1 6.355298894701121e-1
vertex -6.96885475261667e-2 -4.9385037585328756e-1 8.667498558484217e-1
endloop
endfacet
facet normal 4.6345297943823155e-1 -4.756942195415244e-1 7.476137674926847e-1
outer loop
vertex 7.937624003594226e-1 5.979124044633368e-1 -1.1154375089855528e-1
vertex -7.072720160862481e-1 3.0962566891554877e-1 6.355298894701121e-1
vertex -7.938015081328813e-1 -5.97816342601364e-1 1.1178007964164176e-1
endloop
endfacet
facet normal 3.1357946094413036e-1 4.841362288302179e-1 8.168721035805077e-1
outer loop
vertex 7.937624003594226e-1 5.979124044633368e-1 -1.1154375089855528e-1
vertex -7.072720160862481e-1 3.0962566891554877e-1 6.355298894701121e-1
vertex 8.580195132368791e-1 -3.15609841906056e-1 4.0520728349424273e-1
endloop
endfacet
facet normal -1.7384003891863214e-1 9.843000202459933e-1 3.0546865837691395e-2
outer loop
vertex 7.937624003594226e-1 5.979124044633368e-1 -1.1154375089855528e-1
vertex -7.072720160862481e-1 3.0962566891554877e-1 6.355298894701121e-1
vertex 3.1343034368616135e-1 4.842676785458529e-1 8.168514156029757e-1
endloop
endfacet
facet normal -1.7366647436254237e-1 9.843195377769467e-1 3.09031265904052e-2
outer loop
vertex 7.937624003594226e-1 5.979124044633368e-1 -1.1154375089855528e-1
vertex -8.580407506826113e-1 3.156959486518509e-1 -4.050952211182314e-1
vertex -7.072720160862481e-1 3.0962566891554877e-1 6.355298894701121e-1
endloop
endfacet
facet normal 5.180790242537285e-1 -7.605014127031409e-1 -3.914482416678246e-1
outer loop
vertex 7.937624003594226e-1 5.979124044633368e-1 -1.1154375089855528e-1
vertex -6.96885475261667e-2 -4.9385037585328756e-1 8.667498558484217e-1
vertex 6.993911339357113e-2 4.93604164860872e-1 -8.668699146064087e-1
endloop
endfacet
facet normal -5.179149714828603e-1 7.6070876097005e-1 3.912623969886696e-1
outer loop
vertex 7.937624003594226e-1 5.979124044633368e-1 -1.1154375089855528e-1
vertex 6.993911339357113e-2 4.93604164860872e-1 -8.668699146064087e-1
vertex -7.938015081328813e-1 -5.97816342601364e-1 1.1178007964164176e-1
endloop
endfacet
facet normal 7.075277996505859e-1 -3.095827132269679e-1 -6.352660516607426e-1
outer loop
vertex 7.937624003594226e-1 5.979124044633368e-1 -1.1154375089855528e-1
vertex 8.580195132368791e-1 -3.15609841906056e-1 4.0520728349424273e-1
vertex 6.993911339357113e-2 4.93604164860872e-1 -8.668699146064087e-1
endloop
endfacet
facet normal -1.7376498365595508e-1 9.84312021502822e-1 3.0587166918070535e-2
outer loop
vertex 7.937624003594226e-1 5.979124044633368e-1 -1.1154375089855528e-1
vertex 6.993911339357113e-2 4.93604164860872e-1 -8.668699146064087e-1
vertex 3.1343034368616135e-1 4.842676785458529e-1 8.168514156029757e-1
endloop
endfacet
facet normal -1.735836497134914e-1 9.843495604696966e-1 3.0408211970766482e-2
outer loop
vertex 7.937624003594226e-1 5.979124044633368e-1 -1.1154375089855528e-1
vertex 6.993911339357113e-2 4.93604164860872e-1 -8.668699146064087e-1
vertex -8.580407506826113e-1 3.156959486518509e-1 -4.050952211182314e-1
endloop
endfacet
facet normal -5.177188208933068e-1 7.605532172024801e-1 3.918239736103461e-1
outer loop
vertex 7.937624003594226e-1 5.979124044633368e-1 -1.1154375089855528e-1
vertex -7.938015081328813e-1 -5.97816342601364e-1 1.1178007964164176e-1
vertex -6.96885475261667e-2 -4.9385037585328756e-1 8.667498558484217e-1
endloop
endfacet
facet normal 3.134073182259364e-1 4.841551469379073e-1 8.169269530233166e-1
outer loop
vertex 7.937624003594226e-1 5.979124044633368e-1 -1.1154375089855528e-1
vertex -6.96885475261667e-2 -4.9385037585328756e-1 8.667498558484217e-1
vertex 8.580195132368791e-1 -3.15609841906056e-1 4.0520728349424273e-1
endloop
endfacet
facet normal 8.580393915083299e-1 -3.1540788142127135e-1 4.053224283917192e-1
outer loop
vertex 7.937624003594226e-1 5.979124044633368e-1 -1.1154375089855528e-1
vertex 3.1343034368616135e-1 4.842676785458529e-1 8.168514156029757e-1
vertex -6.96885475261667e-2 -4.9385037585328756e-1 8.667498558484217e-1
endloop
endfacet
facet normal -2.3799889801902327e-1 7.457835390500919e-1 6.222245876077629e-1
outer loop
vertex 7.937624003594226e-1 5.979124044633368e-1 -1.1154375089855528e-1
vertex -8.580407506826113e-1 3.156959486518509e-1 -4.050952211182314e-1
vertex -6.96885475261667e-2 -4.9385037585328756e-1 8.667498558484217e-1
endloop
endfacet
facet normal -2.3136289890088904e-1 4.66616410023409e-1 8.536628930140064e-1
outer loop
vertex 7.937624003594226e-1 5.979124044633368e-1 -1.1154375089855528e-1
vertex -7.938015081328813e-1 -5.97816342601364e-1 1.1178007964164176e-1
vertex 8.580195132368791e-1 -3.15609841906056e-1 4.0520728349424273e-1
endloop
endfacet
facet normal -6.064332919510673e-1 7.640267033314284e-1 -2.202313760795698e-1
outer loop
vertex 7.937624003594226e-1 5.979124044633368e-1 -1.1154375089855528e-1
vertex -7.938015081328813e-1 -5.97816342601364e-1 1.1178007964164176e-1
vertex 3.1343034368616135e-1 4.842676785458529e-1 8.168514156029757e-1
endloop
endfacet
facet normal -2.3143512456829488e-1 4.667001019967177e-1 8.535975620351262e-1
outer loop
vertex 7.937624003594226e-1 5.979124044633368e-1 -1.1154375089855528e-1
vertex -8.580407506826113e-1 3.156959486518509e-1 -4.050952211182314e-1
vertex -7.938015081328813e-1 -5.97816342601364e-1 1.1178007964164176e-1
endloop
endfacet
facet normal 8.243742839812356e-1 3.2151481921720215e-1 4.6587043363381087e-1
outer loop
vertex 7.937624003594226e-1 5.979124044633368e-1 -1.1154375089855528e-1
vertex 3.1343034368616135e-1 4.842676785458529e-1 8.168514156029757e-1
vertex 8.580195132368791e-1 -3.15609841906056e-1 4.0520728349424273e-1
endloop
endfacet
facet normal -2.314284524089279e-1 4.666052103926153e-1 8.536512455623033e-1
outer loop
vertex 7.937624003594226e-1 5.979124044633368e-1 -1.1154375089855528e-1
vertex -8.580407506826113e-1 3.156959486518509e-1 -4.050952211182314e-1
vertex 8.580195132368791e-1 -3.15609841906056e-1 4.0520728349424273e-1
endloop
endfacet
facet normal -1.7362608442696786e-1 9.843342115836238e-1 3.066174673114894e-2
outer loop
vertex 7.937624003594226e-1 5.979124044633368e-1 -1.1154375089855528e-1
vertex -8.580407506826113e-1 3.156959486518509e-1 -4.050952211182314e-1
vertex 3.1343034368616135e-1 4.842676785458529e-1 8.168514156029757e-1
endloop
endfacet
facet normal -8.825194551502401e-1 -1.6943490521758348e-1 4.3869263063702335e-1
outer loop
vertex 1.73536968583701e-1 -9.843416915583031e-1 -3.092498657910816e-2
vertex -1.738351151582836e-1 9.84299007670397e-1 3.060745394471509e-2
vertex -3.133271309708471e-1 -4.839426907929227e-1 -8.170835826435893e-1
endloop
endfacet
facet normal -6.889067818266881e-1 -9.911617982969845e-2 -7.180413837998217e-1
outer loop
vertex 1.73536968583701e-1 -9.843416915583031e-1 -3.092498657910816e-2
vertex -7.072720160862481e-1 3.0962566891554877e-1 6.355298894701121e-1
vertex -1.738351151582836e-1 9.84299007670397e-1 3.060745394471509e-2
endloop
endfacet
facet normal -9.70849432498673e-1 -1.65901813295997e-1 -1.729970166277583e-1
outer loop
vertex 1.73536968583701e-1 -9.843416915583031e-1 -3.092498657910816e-2
vertex -1.738351151582836e-1 9.84299007670397e-1 3.060745394471509e-2
vertex 6.993911339357113e-2 4.93604164860872e-1 -8.668699146064087e-1
endloop
endfacet
facet normal -9.709477064839144e-1 -1.6593749370345964e-1 -1.7241026494104336e-1
outer loop
vertex 1.73536968583701e-1 -9.843416915583031e-1 -3.092498657910816e-2
vertex -6.96885475261667e-2 -4.9385037585328756e-1 8.667498558484217e-1
vertex -1.738351151582836e-1 9.84299007670397e-1 3.060745394471509e-2
endloop
endfacet
facet normal -1.43765637304553e-1 5.5632781207710135e-3 -9.895961254304538e-1
outer loop
vertex 1.73536968583701e-1 -9.843416915583031e-1 -3.092498657910816e-2
vertex -7.938015081328813e-1 -5.97816342601364e-1 1.1178007964164176e-1
vertex -1.738351151582836e-1 9.84299007670397e-1 3.060745394471509e-2
endloop
endfacet
facet normal 4.568581519396597e-1 1.082111129339639e-1 -8.829331707688141e-1
outer loop
vertex 1.73536968583701e-1 -9.843416915583031e-1 -3.092498657910816e-2
vertex -1.738351151582836e-1 9.84299007670397e-1 3.060745394471509e-2
vertex 8.580195132368791e-1 -3.15609841906056e-1 4.0520728349424273e-1
endloop
endfacet
facet normal -8.823341930033344e-1 -1.694141088498671e-1 4.390731506022201e-1
outer loop
vertex 1.73536968583701e-1 -9.843416915583031e-1 -3.092498657910816e-2
vertex 3.1343034368616135e-1 4.842676785458529e-1 8.168514156029757e-1
vertex -1.738351151582836e-1 9.84299007670397e-1 3.060745394471509e-2
endloop
endfacet
facet normal 4.56625087325238e-1 1.0817389869389182e-1 -8.830582864491915e-1
outer loop
vertex 1.73536968583701e-1 -9.843416915583031e-1 -3.092498657910816e-2
vertex -8.580407506826113e-1 3.156959486518509e-1 -4.050952211182314e-1
vertex -1.738351151582836e-1 9.84299007670397e-1 3.060745394471509e-2
endloop
endfacet
facet normal -7.939455647484873e-1 -5.977284795402019e-1 1.1122546903818407e-1
outer loop
vertex 1.73536968583701e-1 -9.843416915583031e-1 -3.092498657910816e-2
vertex -7.072720160862481e-1 3.0962566891554877e-1 6.355298894701121e-1
vertex -3.133271309708471e-1 -4.839426907929227e-1 -8.170835826435893e-1
endloop
endfacet
facet normal 7.074596105222408e-1 -3.0972757781851434e-1 -6.352713806070565e-1
outer loop
vertex 1.73536968583701e-1 -9.843416915583031e-1 -3.092498657910816e-2
vertex -3.133271309708471e-1 -4.839426907929227e-1 -8.170835826435893e-1
vertex 6.993911339357113e-2 4.93604164860872e-1 -8.668699146064087e-1
endloop
endfacet
facet normal -7.940355797657894e-1 -5.975810345843764e-1 1.1137506530221644e-1
outer loop
vertex 1.73536968583701e-1 -9.843416915583031e-1 -3.092498657910816e-2
vertex -6.96885475261667e-2 -4.9385037585328756e-1 8.667498558484217e-1
vertex -3.133271309708471e-1 -4.839426907929227e-1 -8.170835826435893e-1
endloop
endfacet
facet normal -3.9185149489442705e-1 -8.666092138936644e-1 -3.089350681674187e-1
outer loop
vertex 1.73536968583701e-1 -9.843416915583031e-1 -3.092498657910816e-2
vertex -7.938015081328813e-1 -5.97816342601364e-1 1.1178007964164176e-1
vertex -3.133271309708471e-1 -4.839426907929227e-1 -8.170835826435893e-1
endloop
endfacet
facet normal 7.074293373963687e-1 -3.0977424658466357e-1 -6.35282337818264e-1
outer loop
vertex 1.73536968583701e-1 -9.843416915583031e-1 -3.092498657910816e-2
vertex -3.133271309708471e-1 -4.839426907929227e-1 -8.170835826435893e-1
vertex 8.580195132368791e-1 -3.15609841906056e-1 4.0520728349424273e-1
endloop
endfacet
facet normal 8.825011439023134e-1 1.6924264288736685e-1 -4.3880366775997626e-1
outer loop
vertex 1.73536968583701e-1 -9.843416915583031e-1 -3.092498657910816e-2
vertex -3.133271309708471e-1 -4.839426907929227e-1 -8.170835826435893e-1
vertex 3.1343034368616135e-1 4.842676785458529e-1 8.168514156029757e-1
endloop
endfacet
facet normal -7.938156193853737e-1 -5.979411558768675e-1 1.1100962358485329e-1
outer loop
vertex 1.73536968583701e-1 -9.843416915583031e-1 -3.092498657910816e-2
vertex -8.580407506826113e-1 3.156959486518509e-1 -4.050952211182314e-1
vertex -3.133271309708471e-1 -4.839426907929227e-1 -8.170835826435893e-1
endloop
endfacet
facet normal -8.244730292211201e-1 -3.212851421681579e-1 -4.658541418823457e-1
outer loop
vertex 1.73536968583701e-1 -9.843416915583031e-1 -3.092498657910816e-2
vertex -7.072720160862481e-1 3.0962566891554877e-1 6.355298894701121e-1
vertex 6.993911339357113e-2 4.93604164860872e-1 -8.668699146064087e-1
endloop
endfacet
facet normal -7.938276610643575e-1 -5.978221391801742e-1 1.1156314102395949e-1
outer loop
vertex 1.73536968583701e-1 -9.843416915583031e-1 -3.092498657910816e-2
vertex -6.96885475261667e-2 -4.9385037585328756e-1 8.667498558484217e-1
vertex -7.072720160862481e-1 3.0962566891554877e-1 6.355298894701121e-1
endloop
endfacet
facet normal -6.939221980468636e-2 -4.937072934963264e-1 8.668551367899426e-1
outer loop
vertex 1.73536968583701e-1 -9.843416915583031e-1 -3.092498657910816e-2
vertex -7.072720160862481e-1 3.0962566891554877e-1 6.355298894701121e-1
vertex -7.938015081328813e-1 -5.97816342601364e-1 1.1178007964164176e-1
endloop
endfacet
facet normal -6.97400350074355e-2 -4.9387922784080834e-1 8.667292748168419e-1
outer loop
vertex 1.73536968583701e-1 -9.843416915583031e-1 -3.092498657910816e-2
vertex 8.580195132368791e-1 -3.15609841906056e-1 4.0520728349424273e-1
vertex -7.072720160862481e-1 3.0962566891554877e-1 6.355298894701121e-1
endloop
endfacet
facet normal -6.950193863719954e-2 -4.9376153869840367e-1 8.668154494630652e-1
outer loop
vertex 1.73536968583701e-1 -9.843416915583031e-1 -3.092498657910816e-2
vertex 3.1343034368616135e-1 4.842676785458529e-1 8.168514156029757e-1
vertex -7.072720160862481e-1 3.0962566891554877e-1 6.355298894701121e-1
endloop
endfacet
facet normal -7.938404095522787e-1 -5.978120202045416e-1 1.115266455195131e-1
outer loop
vertex 1.73536968583701e-1 -9.843416915583031e-1 -3.092498657910816e-2
vertex -7.072720160862481e-1 3.0962566891554877e-1 6.355298894701121e-1
vertex -8.580407506826113e-1 3.156959486518509e-1 -4.050952211182314e-1
endloop
endfacet
facet normal 9.709668484558376e-1 1.65665242717097e-1 1.7256420994871416e-1
outer loop
vertex 1.73536968583701e-1 -9.843416915583031e-1 -3.092498657910816e-2
vertex 6.993911339357113e-2 4.93604164860872e-1 -8.668699146064087e-1
vertex -6.96885475261667e-2 -4.9385037585328756e-1 8.667498558484217e-1
endloop
endfacet
facet normal -3.1389928976900994e-1 -4.8400931827809746e-1 -8.168244705580767e-1
outer loop
vertex 1.73536968583701e-1 -9.843416915583031e-1 -3.092498657910816e-2
vertex -7.938015081328813e-1 -5.97816342601364e-1 1.1178007964164176e-1
vertex 6.993911339357113e-2 4.93604164860872e-1 -8.668699146064087e-1
endloop
endfacet
facet normal 7.07419685262667e-1 -3.0974948270780994e-1 -6.353051604269505e-1
outer loop
vertex 1.73536968583701e-1 -9.843416915583031e-1 -3.092498657910816e-2
vertex 6.993911339357113e-2 4.93604164860872e-1 -8.668699146064087e-1
vertex 8.580195132368791e-1 -3.15609841906056e-1 4.0520728349424273e-1
endloop
endfacet
facet normal 9.896285792811431e-1 -1.1615278515314456e-2 -1.4317946911131518e-1
outer loop
vertex 1.73536968583701e-1 -9.843416915583031e-1 -3.092498657910816e-2
vertex 6.993911339357113e-2 4.93604164860872e-1 -8.668699146064087e-1
vertex 3.1343034368616135e-1 4.842676785458529e-1 8.168514156029757e-1
endloop
endfacet
facet normal -3.136979010087948e-1 -4.840315193300852e-1 -8.168886798075279e-1
outer loop
vertex 1.73536968583701e-1 -9.843416915583031e-1 -3.092498657910816e-2
vertex -8.580407506826113e-1 3.156959486518509e-1 -4.050952211182314e-1
vertex 6.993911339357113e-2 4.93604164860872e-1 -8.668699146064087e-1
endloop
endfacet
facet normal -2.893317749382975e-1 -8.708266542401568e-1 3.9742680115456314e-1
outer loop
vertex 1.73536968583701e-1 -9.843416915583031e-1 -3.092498657910816e-2
vertex -6.96885475261667e-2 -4.9385037585328756e-1 8.667498558484217e-1
vertex -7.938015081328813e-1 -5.97816342601364e-1 1.1178007964164176e-1
endloop
endfacet
facet normal 4.0352923484614395e-1 -7.524920538359561e-1 5.204996306802054e-1
outer loop
vertex 1.73536968583701e-1 -9.843416915583031e-1 -3.092498657910816e-2
vertex 8.580195132368791e-1 -3.15609841906056e-1 4.0520728349424273e-1
vertex -6.96885475261667e-2 -4.9385037585328756e-1 8.667498558484217e-1
endloop
endfacet
facet normal 8.582007136560932e-1 -3.1549183696546285e-1 4.0491534410087526e-1
outer loop
vertex 1.73536968583701e-1 -9.843416915583031e-1 -3.092498657910816e-2
vertex 3.1343034368616135e-1 4.842676785458529e-1 8.168514156029757e-1
vertex -6.96885475261667e-2 -4.9385037585328756e-1 8.667498558484217e-1
endloop
endfacet
facet normal -7.938415517081101e-1 -5.978060379216613e-1 1.1155057958641507e-1
outer loop
vertex 1.73536968583701e-1 -9.843416915583031e-1 -3.092498657910816e-2
vertex -6.96885475261667e-2 -4.9385037585328756e-1 8.667498558484217e-1
vertex -8.580407506826113e-1 3.156959486518509e-1 -4.050952211182314e-1
endloop
endfacet
facet normal -6.954951062717808e-2 -4.940286755065219e-1 8.666594102349502e-1
outer loop
vertex 1.73536968583701e-1 -9.843416915583031e-1 -3.092498657910816e-2
vertex 8.580195132368791e-1 -3.15609841906056e-1 4.0520728349424273e-1
vertex -7.938015081328813e-1 -5.97816342601364e-1 1.1178007964164176e-1
endloop
endfacet
facet normal -6.942288654543784e-2 -4.9376995742796687e-1 8.668169887382705e-1
outer loop
vertex 1.73536968583701e-1 -9.843416915583031e-1 -3.092498657910816e-2
vertex 3.1343034368616135e-1 4.842676785458529e-1 8.168514156029757e-1
vertex -7.938015081328813e-1 -5.97816342601364e-1 1.1178007964164176e-1
endloop
endfacet
facet normal -3.13949144633638e-1 -4.84178094327404e-1 -8.167052758231028e-1
outer loop
vertex 1.73536968583701e-1 -9.843416915583031e-1 -3.092498657910816e-2
vertex -7.938015081328813e-1 -5.97816342601364e-1 1.1178007964164176e-1
vertex -8.580407506826113e-1 3.156959486518509e-1 -4.050952211182314e-1
endloop
endfacet
facet normal -6.995107452421771e-2 -4.937136473905339e-1 8.668065998556097e-1
outer loop
vertex 1.73536968583701e-1 -9.843416915583031e-1 -3.092498657910816e-2
vertex 8.580195132368791e-1 -3.15609841906056e-1 4.0520728349424273e-1
vertex 3.1343034368616135e-1 4.842676785458529e-1 8.168514156029757e-1
endloop
endfacet
facet normal -4.5677301701084727e-1 -1.0831839979015254e-1 8.829640622345333e-1
outer loop
vertex 1.73536968583701e-1 -9.843416915583031e-1 -3.092498657910816e-2
vertex 8.580195132368791e-1 -3.15609841906056e-1 4.0520728349424273e-1
vertex -8.580407506826113e-1 3.156959486518509e-1 -4.050952211182314e-1
endloop
endfacet
facet normal -6.589088071447164e-1 -3.280093401663659e-1 6.769409550549828e-1
outer loop
vertex 1.73536968583701e-1 -9.843416915583031e-1 -3.092498657910816e-2
vertex 3.1343034368616135e-1 4.842676785458529e-1 8.168514156029757e-1
vertex -8.580407506826113e-1 3.156959486518509e-1 -4.050952211182314e-1
endloop
endfacet
facet normal -8.581881652180162e-1 3.153780372643002e-1 -4.050305750076807e-1
outer loop
vertex -1.738351151582836e-1 9.84299007670397e-1 3.060745394471509e-2
vertex -3.133271309708471e-1 -4.839426907929227e-1 -8.170835826435893e-1
vertex -7.072720160862481e-1 3.0962566891554877e-1 6.355298894701121e-1
endloop
endfacet
facet normal -8.57816661772876e-1 3.156669425221987e-1 -4.055921056720979e-1
outer loop
vertex -1.738351151582836e-1 9.84299007670397e-1 3.060745394471509e-2
vertex 6.993911339357113e-2 4.93604164860872e-1 -8.668699146064087e-1
vertex -3.133271309708471e-1 -4.839426907929227e-1 -8.170835826435893e-1
endloop
endfacet
facet normal -9.896208120516597e-1 1.1310162491619837e-2 1.4325756028435924e-1
outer loop
vertex -1.738351151582836e-1 9.84299007670397e-1 3.060745394471509e-2
vertex -3.133271309708471e-1 -4.839426907929227e-1 -8.170835826435893e-1
vertex -6.96885475261667e-2 -4.9385037585328756e-1 8.667498558484217e-1
endloop
endfacet
facet normal -8.580838070278216e-1 3.1545924628108774e-1 -4.0518840562435693e-1
outer loop
vertex -1.738351151582836e-1 9.84299007670397e-1 3.060745394471509e-2
vertex -3.133271309708471e-1 -4.839426907929227e-1 -8.170835826435893e-1
vertex -7.938015081328813e-1 -5.97816342601364e-1 1.1178007964164176e-1
endloop
endfacet
facet normal 6.590411839963566e-1 3.281155367247579e-1 -6.7676060195353e-1
outer loop
vertex -1.738351151582836e-1 9.84299007670397e-1 3.060745394471509e-2
vertex 8.580195132368791e-1 -3.15609841906056e-1 4.0520728349424273e-1
vertex -3.133271309708471e-1 -4.839426907929227e-1 -8.170835826435893e-1
endloop
endfacet
facet normal 8.823524643954521e-1 1.6960639708986489e-1 -4.389621836120595e-1
outer loop
vertex -1.738351151582836e-1 9.84299007670397e-1 3.060745394471509e-2
vertex 3.1343034368616135e-1 4.842676785458529e-1 8.168514156029757e-1
vertex -3.133271309708471e-1 -4.839426907929227e-1 -8.170835826435893e-1
endloop
endfacet
facet normal 6.938302288320604e-2 4.93843594879737e-1 -8.66778229959571e-1
outer loop
vertex -1.738351151582836e-1 9.84299007670397e-1 3.060745394471509e-2
vertex -3.133271309708471e-1 -4.839426907929227e-1 -8.170835826435893e-1
vertex -8.580407506826113e-1 3.156959486518509e-1 -4.050952211182314e-1
endloop
endfacet
facet normal -8.581525604444082e-1 3.150614371887885e-1 -4.053522835747216e-1
outer loop
vertex -1.738351151582836e-1 9.84299007670397e-1 3.060745394471509e-2
vertex 6.993911339357113e-2 4.93604164860872e-1 -8.668699146064087e-1
vertex -7.072720160862481e-1 3.0962566891554877e-1 6.355298894701121e-1
endloop
endfacet
facet normal 3.138973989511892e-1 4.841286094790251e-1 8.167544994767912e-1
outer loop
vertex -1.738351151582836e-1 9.84299007670397e-1 3.060745394471509e-2
vertex -7.072720160862481e-1 3.0962566891554877e-1 6.355298894701121e-1
vertex -6.96885475261667e-2 -4.9385037585328756e-1 8.667498558484217e-1
endloop
endfacet
facet normal -8.582043078598235e-1 3.155220751889587e-1 -4.048841637299417e-1
outer loop
vertex -1.738351151582836e-1 9.84299007670397e-1 3.060745394471509e-2
vertex -7.938015081328813e-1 -5.97816342601364e-1 1.1178007964164176e-1
vertex -7.072720160862481e-1 3.0962566891554877e-1 6.355298894701121e-1
endloop
endfacet
facet normal 3.136347361271283e-1 4.8432327852166357e-1 8.167399917822645e-1
outer loop
vertex -1.738351151582836e-1 9.84299007670397e-1 3.060745394471509e-2
vertex -7.072720160862481e-1 3.0962566891554877e-1 6.355298894701121e-1
vertex 8.580195132368791e-1 -3.15609841906056e-1 4.0520728349424273e-1
endloop
endfacet
facet normal -2.3812248818173748e-1 7.45949299636471e-1 6.219785550917303e-1
outer loop
vertex -1.738351151582836e-1 9.84299007670397e-1 3.060745394471509e-2
vertex -7.072720160862481e-1 3.0962566891554877e-1 6.355298894701121e-1
vertex 3.1343034368616135e-1 4.842676785458529e-1 8.168514156029757e-1
endloop
endfacet
facet normal -7.295274421432241e-1 6.75107451034094e-1 1.0963412205245734e-1
outer loop
vertex -1.738351151582836e-1 9.84299007670397e-1 3.060745394471509e-2
vertex -8.580407506826113e-1 3.156959486518509e-1 -4.050952211182314e-1
vertex -7.072720160862481e-1 3.0962566891554877e-1 6.355298894701121e-1
endloop
endfacet
facet normal 9.708303127104335e-1 1.6617400770676152e-1 1.728430012619391e-1
outer loop
vertex -1.738351151582836e-1 9.84299007670397e-1 3.060745394471509e-2
vertex -6.96885475261667e-2 -4.9385037585328756e-1 8.667498558484217e-1
vertex 6.993911339357113e-2 4.93604164860872e-1 -8.668699146064087e-1
endloop
endfacet
facet normal -8.579660113662687e-1 3.153978419877541e-1 -4.0548554180108937e-1
outer loop
vertex -1.738351151582836e-1 9.84299007670397e-1 3.060745394471509e-2
vertex 6.993911339357113e-2 4.93604164860872e-1 -8.668699146064087e-1
vertex -7.938015081328813e-1 -5.97816342601364e-1 1.1178007964164176e-1
endloop
endfacet
facet normal 7.937414837461706e-1 5.97977025394349e-1 -1.1134601061984072e-1
outer loop
vertex -1.738351151582836e-1 9.84299007670397e-1 3.060745394471509e-2
vertex 8.580195132368791e-1 -3.15609841906056e-1 4.0520728349424273e-1
vertex 6.993911339357113e-2 4.93604164860872e-1 -8.668699146064087e-1
endloop
endfacet
facet normal 7.936231408895705e-1 5.981141303584206e-1 -1.1145311709487202e-1
outer loop
vertex -1.738351151582836e-1 9.84299007670397e-1 3.060745394471509e-2
vertex 3.1343034368616135e-1 4.842676785458529e-1 8.168514156029757e-1
vertex 6.993911339357113e-2 4.93604164860872e-1 -8.668699146064087e-1
endloop
endfacet
facet normal -4.034240047141923e-1 7.522802939998408e-1 -5.208871582981064e-1
outer loop
vertex -1.738351151582836e-1 9.84299007670397e-1 3.060745394471509e-2
vertex 6.993911339357113e-2 4.93604164860872e-1 -8.668699146064087e-1
vertex -8.580407506826113e-1 3.156959486518509e-1 -4.050952211182314e-1
endloop
endfacet
facet normal -7.071614654595593e-1 3.097184343370399e-1 6.356077038558463e-1
outer loop
vertex -1.738351151582836e-1 9.84299007670397e-1 3.060745394471509e-2
vertex -7.938015081328813e-1 -5.97816342601364e-1 1.1178007964164176e-1
vertex -6.96885475261667e-2 -4.9385037585328756e-1 8.667498558484217e-1
endloop
endfacet
facet normal 3.133956193650431e-1 4.841837547128208e-1 8.169144859989912e-1
outer loop
vertex -1.738351151582836e-1 9.84299007670397e-1 3.060745394471509e-2
vertex -6.96885475261667e-2 -4.9385037585328756e-1 8.667498558484217e-1
vertex 8.580195132368791e-1 -3.15609841906056e-1 4.0520728349424273e-1
endloop
endfacet
facet normal -7.07501476983196e-1 3.0953182513380445e-1 6.353201628281067e-1
outer loop
vertex -1.738351151582836e-1 9.84299007670397e-1 3.060745394471509e-2
vertex -6.96885475261667e-2 -4.9385037585328756e-1 8.667498558484217e-1
vertex 3.1343034368616135e-1 4.842676785458529e-1 8.168514156029757e-1
endloop
endfacet
facet normal -7.072818048278384e-1 3.096524068385197e-1 6.355059681061913e-1
outer loop
vertex -1.738351151582836e-1 9.84299007670397e-1 3.060745394471509e-2
vertex -8.580407506826113e-1 3.156959486518509e-1 -4.050952211182314e-1
vertex -6.96885475261667e-2 -4.9385037585328756e-1 8.667498558484217e-1
endloop
endfacet
facet normal -1.9434454371414425e-1 1.2606648174855936e-1 9.727987667077304e-1
outer loop
vertex -1.738351151582836e-1 9.84299007670397e-1 3.060745394471509e-2
vertex -7.938015081328813e-1 -5.97816342601364e-1 1.1178007964164176e-1
vertex 8.580195132368791e-1 -3.15609841906056e-1 4.0520728349424273e-1
endloop
endfacet
facet normal -7.073422570439036e-1 3.097774794358874e-1 6.353777180814453e-1
outer loop
vertex -1.738351151582836e-1 9.84299007670397e-1 3.060745394471509e-2
vertex -7.938015081328813e-1 -5.97816342601364e-1 1.1178007964164176e-1
vertex 3.1343034368616135e-1 4.842676785458529e-1 8.168514156029757e-1
endloop
endfacet
facet normal -7.073289108547338e-1 3.097731209161167e-1 6.35394700502723e-1
outer loop
vertex -1.738351151582836e-1 9.84299007670397e-1 3.060745394471509e-2
vertex -8.580407506826113e-1 3.156959486518509e-1 -4.050952211182314e-1
vertex -7.938015081328813e-1 -5.97816342601364e-1 1.1178007964164176e-1
endloop
endfacet
facet normal 7.937572983909945e-1 5.978945026282556e-1 -1.1167593732734325e-1
outer loop
vertex -1.738351151582836e-1 9.84299007670397e-1 3.060745394471509e-2
vertex 3.1343034368616135e-1 4.842676785458529e-1 8.168514156029757e-1
vertex 8.580195132368791e-1 -3.15609841906056e-1 4.0520728349424273e-1
endloop
endfacet
facet normal -4.5671027217416393e-1 -1.0806658084228082e-1 8.830273729594456e-1
outer loop
vertex -1.738351151582836e-1 9.84299007670397e-1 3.060745394471509e-2
vertex -8.580407506826113e-1 3.156959486518509e-1 -4.050952211182314e-1
vertex 8.580195132368791e-1 -3.15609841906056e-1 4.0520728349424273e-1
endloop
endfacet
facet normal -7.073349865782161e-1 3.0978869378017787e-1 6.353803443358679e-1
outer loop
vertex -1.738351151582836e-1 9.84299007670397e-1 3.060745394471509e-2
vertex -8.580407506826113e-1 3.156959486518509e-1 -4.050952211182314e-1
vertex 3.1343034368616135e-1 4.842676785458529e-1 8.168514156029757e-1
endloop
endfacet
facet normal -8.579805960878053e-1 3.157522694617312e-1 -4.05178727312504e-1
outer loop
vertex -3.133271309708471e-1 -4.839426907929227e-1 -8.170835826435893e-1
vertex -7.072720160862481e-1 3.0962566891554877e-1 6.355298894701121e-1
vertex 6.993911339357113e-2 4.93604164860872e-1 -8.668699146064087e-1
endloop
endfacet
facet normal -7.938170813720927e-1 -5.978774672448108e-1 1.1134170594535708e-1
outer loop
vertex -3.133271309708471e-1 -4.839426907929227e-1 -8.170835826435893e-1
vertex -6.96885475261667e-2 -4.9385037585328756e-1 8.667498558484217e-1
vertex -7.072720160862481e-1 3.0962566891554877e-1 6.355298894701121e-1
endloop
endfacet
facet normal -8.5803545483504e-1 3.1565340022055655e-1 -4.0513959220894136e-1
outer loop
vertex -3.133271309708471e-1 -4.839426907929227e-1 -8.170835826435893e-1
vertex -7.938015081328813e-1 -5.97816342601364e-1 1.1178007964164176e-1
vertex -7.072720160862481e-1 3.0962566891554877e-1 6.355298894701121e-1
endloop
endfacet
facet normal -2.8940208430605485e-1 -8.708721992025584e-1 3.9727578110855244e-1
outer loop
vertex -3.133271309708471e-1 -4.839426907929227e-1 -8.170835826435893e-1
vertex 8.580195132368791e-1 -3.15609841906056e-1 4.0520728349424273e-1
vertex -7.072720160862481e-1 3.0962566891554877e-1 6.355298894701121e-1
endloop
endfacet
facet normal -6.1381676007325255e-2 8.688296265188147e-1 -4.9129153252799773e-1
outer loop
vertex -3.133271309708471e-1 -4.839426907929227e-1 -8.170835826435893e-1
vertex -7.072720160862481e-1 3.0962566891554877e-1 6.355298894701121e-1
vertex 3.1343034368616135e-1 4.842676785458529e-1 8.168514156029757e-1
endloop
endfacet
facet normal -7.936455005991356e-1 -5.980763065846492e-1 1.1149686489230227e-1
outer loop
vertex -3.133271309708471e-1 -4.839426907929227e-1 -8.170835826435893e-1
vertex -7.072720160862481e-1 3.0962566891554877e-1 6.355298894701121e-1
vertex -8.580407506826113e-1 3.156959486518509e-1 -4.050952211182314e-1
endloop
endfacet
facet normal 9.200801052539576e-1 -3.676256958188252e-1 -1.352920828784562e-1
outer loop
vertex -3.133271309708471e-1 -4.839426907929227e-1 -8.170835826435893e-1
vertex 6.993911339357113e-2 4.93604164860872e-1 -8.668699146064087e-1
vertex -6.96885475261667e-2 -4.9385037585328756e-1 8.667498558484217e-1
endloop
endfacet
facet normal -8.580073460640706e-1 3.1576619522955024e-1 -4.0511122429567914e-1
outer loop
vertex -3.133271309708471e-1 -4.839426907929227e-1 -8.170835826435893e-1
vertex -7.938015081328813e-1 -5.97816342601364e-1 1.1178007964164176e-1
vertex 6.993911339357113e-2 4.93604164860872e-1 -8.668699146064087e-1
endloop
endfacet
facet normal 7.074383902093309e-1 -3.0972063391390525e-1 -6.352983968073579e-1
outer loop
vertex -3.133271309708471e-1 -4.839426907929227e-1 -8.170835826435893e-1
vertex 6.993911339357113e-2 4.93604164860872e-1 -8.668699146064087e-1
vertex 8.580195132368791e-1 -3.15609841906056e-1 4.0520728349424273e-1
endloop
endfacet
facet normal 9.201079036354399e-1 -3.676268058000714e-1 -1.3509987907038515e-1
outer loop
vertex -3.133271309708471e-1 -4.839426907929227e-1 -8.170835826435893e-1
vertex 6.993911339357113e-2 4.93604164860872e-1 -8.668699146064087e-1
vertex 3.1343034368616135e-1 4.842676785458529e-1 8.168514156029757e-1
endloop
endfacet
facet normal -4.621928969892615e-1 1.3658709644695388e-1 -8.761972900305413e-1
outer loop
vertex -3.133271309708471e-1 -4.839426907929227e-1 -8.170835826435893e-1
vertex -8.580407506826113e-1 3.156959486518509e-1 -4.050952211182314e-1
vertex 6.993911339357113e-2 4.93604164860872e-1 -8.668699146064087e-1
endloop
endfacet
facet normal 1.735486125152178e-1 -9.843403260783355e-1 -3.0903099359756117e-2
outer loop
vertex -3.133271309708471e-1 -4.839426907929227e-1 -8.170835826435893e-1
vertex -6.96885475261667e-2 -4.9385037585328756e-1 8.667498558484217e-1
vertex -7.938015081328813e-1 -5.97816342601364e-1 1.1178007964164176e-1
endloop
endfacet
facet normal 1.7372771456091993e-1 -9.843079239096989e-1 -3.0928823482602605e-2
outer loop
vertex -3.133271309708471e-1 -4.839426907929227e-1 -8.170835826435893e-1
vertex 8.580195132368791e-1 -3.15609841906056e-1 4.0520728349424273e-1
vertex -6.96885475261667e-2 -4.9385037585328756e-1 8.667498558484217e-1
endloop
endfacet
facet normal 9.201946110704425e-1 -3.6733351596061964e-1 -1.3530693185837128e-1
outer loop
vertex -3.133271309708471e-1 -4.839426907929227e-1 -8.170835826435893e-1
vertex 3.1343034368616135e-1 4.842676785458529e-1 8.168514156029757e-1
vertex -6.96885475261667e-2 -4.9385037585328756e-1 8.667498558484217e-1
endloop
endfacet
facet normal -7.937056412042014e-1 -5.980285678877433e-1 1.113246922778698e-1
outer loop
vertex -3.133271309708471e-1 -4.839426907929227e-1 -8.170835826435893e-1
vertex -6.96885475261667e-2 -4.9385037585328756e-1 8.667498558484217e-1
vertex -8.580407506826113e-1 3.156959486518509e-1 -4.050952211182314e-1
endloop
endfacet
facet normal 1.73647731705949e-1 -9.843245143728732e-1 -3.0849889432314134e-2
outer loop
vertex -3.133271309708471e-1 -4.839426907929227e-1 -8.170835826435893e-1
vertex 8.580195132368791e-1 -3.15609841906056e-1 4.0520728349424273e-1
vertex -7.938015081328813e-1 -5.97816342601364e-1 1.1178007964164176e-1
endloop
endfacet
facet normal -6.065165479738148e-1 7.640070013618014e-1 -2.2007039533766337e-1
outer loop
vertex -3.133271309708471e-1 -4.839426907929227e-1 -8.170835826435893e-1
vertex -7.938015081328813e-1 -5.97816342601364e-1 1.1178007964164176e-1
vertex 3.1343034368616135e-1 4.842676785458529e-1 8.168514156029757e-1
endloop
endfacet
facet normal -8.243741453158929e-1 -3.215514093044223e-1 -4.6584542469474893e-1
outer loop
vertex -3.133271309708471e-1 -4.839426907929227e-1 -8.170835826435893e-1
vertex -7.938015081328813e-1 -5.97816342601364e-1 1.1178007964164176e-1
vertex -8.580407506826113e-1 3.156959486518509e-1 -4.050952211182314e-1
endloop
endfacet
facet normal 5.077495286750804e-1 6.415828259707241e-1 -5.74945122207027e-1
outer loop
vertex -3.133271309708471e-1 -4.839426907929227e-1 -8.170835826435893e-1
vertex 3.1343034368616135e-1 4.842676785458529e-1 8.168514156029757e-1
vertex 8.580195132368791e-1 -3.15609841906056e-1 4.0520728349424273e-1
endloop
endfacet
facet normal -5.075454470190219e-1 -6.418824942159396e-1 5.74790816584073e-1
outer loop
vertex -3.133271309708471e-1 -4.839426907929227e-1 -8.170835826435893e-1
vertex 8.580195132368791e-1 -3.15609841906056e-1 4.0520728349424273e-1
vertex -8.580407506826113e-1 3.156959486518509e-1 -4.050952211182314e-1
endloop
endfacet
facet normal 5.073777204387399e-1 6.418583879372078e-1 -5.749657891014358e-1
outer loop
vertex -3.133271309708471e-1 -4.839426907929227e-1 -8.170835826435893e-1
vertex -8.580407506826113e-1 3.156959486518509e-1 -4.050952211182314e-1
vertex 3.1343034368616135e-1 4.842676785458529e-1 8.168514156029757e-1
endloop
endfacet
facet normal -6.509628963283327e-1 -6.358762317944978e-1 -4.1461877121357926e-1
outer loop
vertex -7.072720160862481e-1 3.0962566891554877e-1 6.355298894701121e-1
vertex 6.993911339357113e-2 4.93604164860872e-1 -8.668699146064087e-1
vertex -6.96885475261667e-2 -4.9385037585328756e-1 8.667498558484217e-1
endloop
endfacet
facet normal -8.579979779553691e-1 3.1568253298274834e-1 -4.0519625885994304e-1
outer loop
vertex -7.072720160862481e-1 3.0962566891554877e-1 6.355298894701121e-1
vertex 6.993911339357113e-2 4.93604164860872e-1 -8.668699146064087e-1
vertex -7.938015081328813e-1 -5.97816342601364e-1 1.1178007964164176e-1
endloop
endfacet
facet normal 3.9164928785332703e-1 8.667677763552247e-1 3.0874659058231085e-1
outer loop
vertex -7.072720160862481e-1 3.0962566891554877e-1 6.355298894701121e-1
vertex 8.580195132368791e-1 -3.15609841906056e-1 4.0520728349424273e-1
vertex 6.993911339357113e-2 4.93604164860872e-1 -8.668699146064087e-1
endloop
endfacet
facet normal -1.7384879358153693e-1 9.84296848389379e-1 3.0599202946812974e-2
outer loop
vertex -7.072720160862481e-1 3.0962566891554877e-1 6.355298894701121e-1
vertex 3.1343034368616135e-1 4.842676785458529e-1 8.168514156029757e-1
vertex 6.993911339357113e-2 4.93604164860872e-1 -8.668699146064087e-1
endloop
endfacet
facet normal -1.7336377400829991e-1 9.8437426194704e-1 3.0859589722142793e-2
outer loop
vertex -7.072720160862481e-1 3.0962566891554877e-1 6.355298894701121e-1
vertex 6.993911339357113e-2 4.93604164860872e-1 -8.668699146064087e-1
vertex -8.580407506826113e-1 3.156959486518509e-1 -4.050952211182314e-1
endloop
endfacet
facet normal -6.58819287861482e-1 -3.2795471693804706e-1 6.770545395902572e-1
outer loop
vertex -7.072720160862481e-1 3.0962566891554877e-1 6.355298894701121e-1
vertex -7.938015081328813e-1 -5.97816342601364e-1 1.1178007964164176e-1
vertex -6.96885475261667e-2 -4.9385037585328756e-1 8.667498558484217e-1
endloop
endfacet
facet normal 3.1351047594157294e-1 4.839028303840024e-1 8.170368609929662e-1
outer loop
vertex -7.072720160862481e-1 3.0962566891554877e-1 6.355298894701121e-1
vertex -6.96885475261667e-2 -4.9385037585328756e-1 8.667498558484217e-1
vertex 8.580195132368791e-1 -3.15609841906056e-1 4.0520728349424273e-1
endloop
endfacet
facet normal -1.94334915157907e-1 1.2574828643370484e-1 9.72841872664595e-1
outer loop
vertex -7.072720160862481e-1 3.0962566891554877e-1 6.355298894701121e-1
vertex -6.96885475261667e-2 -4.9385037585328756e-1 8.667498558484217e-1
vertex 3.1343034368616135e-1 4.842676785458529e-1 8.168514156029757e-1
endloop
endfacet
facet normal -7.938258138055071e-1 -5.978318175826588e-1 1.1152441536201366e-1
outer loop
vertex -7.072720160862481e-1 3.0962566891554877e-1 6.355298894701121e-1
vertex -8.580407506826113e-1 3.156959486518509e-1 -4.050952211182314e-1
vertex -6.96885475261667e-2 -4.9385037585328756e-1 8.667498558484217e-1
endloop
endfacet
facet normal -6.964288355526849e-2 -4.9368057254773307e-1 8.668502529612885e-1
outer loop
vertex -7.072720160862481e-1 3.0962566891554877e-1 6.355298894701121e-1
vertex -7.938015081328813e-1 -5.97816342601364e-1 1.1178007964164176e-1
vertex 8.580195132368791e-1 -3.15609841906056e-1 4.0520728349424273e-1
endloop
endfacet
facet normal -6.95201614895075e-2 -4.9369365879451416e-1 8.668526509231881e-1
outer loop
vertex -7.072720160862481e-1 3.0962566891554877e-1 6.355298894701121e-1
vertex -7.938015081328813e-1 -5.97816342601364e-1 1.1178007964164176e-1
vertex 3.1343034368616135e-1 4.842676785458529e-1 8.168514156029757e-1
endloop
endfacet
facet normal -9.895910277063671e-1 1.1572028831535828e-2 1.43442274214327e-1
outer loop
vertex -7.072720160862481e-1 3.0962566891554877e-1 6.355298894701121e-1
vertex -8.580407506826113e-1 3.156959486518509e-1 -4.050952211182314e-1
vertex -7.938015081328813e-1 -5.97816342601364e-1 1.1178007964164176e-1
endloop
endfacet
facet normal -6.956592109020437e-2 -4.9352318385318916e-1 8.669460476997878e-1
outer loop
vertex -7.072720160862481e-1 3.0962566891554877e-1 6.355298894701121e-1
vertex 8.580195132368791e-1 -3.15609841906056e-1 4.0520728349424273e-1
vertex 3.1343034368616135e-1 4.842676785458529e-1 8.168514156029757e-1
endloop
endfacet
facet normal 3.6450248117308354e-1 9.29996012284105e-1 -4.738521240143025e-2
outer loop
vertex -7.072720160862481e-1 3.0962566891554877e-1 6.355298894701121e-1
vertex 8.580195132368791e-1 -3.15609841906056e-1 4.0520728349424273e-1
vertex -8.580407506826113e-1 3.156959486518509e-1 -4.050952211182314e-1
endloop
endfacet
facet normal -1.7390536818204855e-1 9.842762797535172e-1 3.093748587138251e-2
outer loop
vertex -7.072720160862481e-1 3.0962566891554877e-1 6.355298894701121e-1
vertex 3.1343034368616135e-1 4.842676785458529e-1 8.168514156029757e-1
vertex -8.580407506826113e-1 3.156959486518509e-1 -4.050952211182314e-1
endloop
endfacet
facet normal 5.175547820420469e-1 -7.607605792712174e-1 -3.916380837103705e-1
outer loop
vertex 6.993911339357113e-2 4.93604164860872e-1 -8.668699146064087e-1
vertex -6.96885475261667e-2 -4.9385037585328756e-1 8.667498558484217e-1
vertex -7.938015081328813e-1 -5.97816342601364e-1 1.1178007964164176e-1
endloop
endfacet
facet normal -8.204641411519864e-2 -8.631441855365573e-1 -4.9824742940156813e-1
outer loop
vertex 6.993911339357113e-2 4.93604164860872e-1 -8.668699146064087e-1
vertex 8.580195132368791e-1 -3.15609841906056e-1 4.0520728349424273e-1
vertex -6.96885475261667e-2 -4.9385037585328756e-1 8.667498558484217e-1
endloop
endfacet
facet normal 9.202224057916598e-1 -3.673346022046109e-1 -1.3511481747828413e-1
outer loop
vertex 6.993911339357113e-2 4.93604164860872e-1 -8.668699146064087e-1
vertex 3.1343034368616135e-1 4.842676785458529e-1 8.168514156029757e-1
vertex -6.96885475261667e-2 -4.9385037585328756e-1 8.667498558484217e-1
endloop
endfacet
facet normal -8.24689097664491e-2 -8.630991012391325e-1 -4.9825577805193094e-1
outer loop
vertex 6.993911339357113e-2 4.93604164860872e-1 -8.668699146064087e-1
vertex -6.96885475261667e-2 -4.9385037585328756e-1 8.667498558484217e-1
vertex -8.580407506826113e-1 3.156959486518509e-1 -4.050952211182314e-1
endloop
endfacet
facet normal 2.3793944123938907e-1 -7.460117509129006e-1 -6.219737050732579e-1
outer loop
vertex 6.993911339357113e-2 4.93604164860872e-1 -8.668699146064087e-1
vertex 8.580195132368791e-1 -3.15609841906056e-1 4.0520728349424273e-1
vertex -7.938015081328813e-1 -5.97816342601364e-1 1.1178007964164176e-1
endloop
endfacet
facet normal -7.294640985282669e-1 6.752404682882622e-1 1.0923570361466593e-1
outer loop
vertex 6.993911339357113e-2 4.93604164860872e-1 -8.668699146064087e-1
vertex -7.938015081328813e-1 -5.97816342601364e-1 1.1178007964164176e-1
vertex 3.1343034368616135e-1 4.842676785458529e-1 8.168514156029757e-1
endloop
endfacet
facet normal -3.1362335770368904e-1 -4.842139694579231e-1 -8.168091706662367e-1
outer loop
vertex 6.993911339357113e-2 4.93604164860872e-1 -8.668699146064087e-1
vertex -7.938015081328813e-1 -5.97816342601364e-1 1.1178007964164176e-1
vertex -8.580407506826113e-1 3.156959486518509e-1 -4.050952211182314e-1
endloop
endfacet
facet normal 7.938244037262414e-1 5.978412771961116e-1 -1.114837357160204e-1
outer loop
vertex 6.993911339357113e-2 4.93604164860872e-1 -8.668699146064087e-1
vertex 3.1343034368616135e-1 4.842676785458529e-1 8.168514156029757e-1
vertex 8.580195132368791e-1 -3.15609841906056e-1 4.0520728349424273e-1
endloop
endfacet
facet normal 8.236541134141884e-2 8.632053912517428e-1 4.9808873860837755e-1
outer loop
vertex 6.993911339357113e-2 4.93604164860872e-1 -8.668699146064087e-1
vertex -8.580407506826113e-1 3.156959486518509e-1 -4.050952211182314e-1
vertex 8.580195132368791e-1 -3.15609841906056e-1 4.0520728349424273e-1
endloop
endfacet
facet normal -1.7351403741422744e-1 9.843574083617698e-1 3.055112802359353e-2
outer loop
vertex 6.993911339357113e-2 4.93604164860872e-1 -8.668699146064087e-1
vertex -8.580407506826113e-1 3.156959486518509e-1 -4.050952211182314e-1
vertex 3.1343034368616135e-1 4.842676785458529e-1 8.168514156029757e-1
endloop
endfacet
facet normal 1.7367800100915026e-1 -9.843134843464292e-1 -3.1030895882289085e-2
outer loop
vertex -6.96885475261667e-2 -4.9385037585328756e-1 8.667498558484217e-1
vertex -7.938015081328813e-1 -5.97816342601364e-1 1.1178007964164176e-1
vertex 8.580195132368791e-1 -3.15609841906056e-1 4.0520728349424273e-1
endloop
endfacet
facet normal -7.072090443139278e-1 3.0943626139723585e-1 6.356921957780214e-1
outer loop
vertex -6.96885475261667e-2 -4.9385037585328756e-1 8.667498558484217e-1
vertex 3.1343034368616135e-1 4.842676785458529e-1 8.168514156029757e-1
vertex -7.938015081328813e-1 -5.97816342601364e-1 1.1178007964164176e-1
endloop
endfacet
facet normal -7.071342006448804e-1 3.0987995162122994e-1 6.355593110493705e-1
outer loop
vertex -6.96885475261667e-2 -4.9385037585328756e-1 8.667498558484217e-1
vertex -8.580407506826113e-1 3.156959486518509e-1 -4.050952211182314e-1
vertex -7.938015081328813e-1 -5.97816342601364e-1 1.1178007964164176e-1
endloop
endfacet
facet normal 4.621403752149778e-1 -1.363131149354539e-1 8.762676579063918e-1
outer loop
vertex -6.96885475261667e-2 -4.9385037585328756e-1 8.667498558484217e-1
vertex 8.580195132368791e-1 -3.15609841906056e-1 4.0520728349424273e-1
vertex 3.1343034368616135e-1 4.842676785458529e-1 8.168514156029757e-1
endloop
endfacet
facet normal 8.214996135869286e-2 8.630378706416091e-1 4.984145038892454e-1
outer loop
vertex -6.96885475261667e-2 -4.9385037585328756e-1 8.667498558484217e-1
vertex 8.580195132368791e-1 -3.15609841906056e-1 4.0520728349424273e-1
vertex -8.580407506826113e-1 3.156959486518509e-1 -4.050952211182314e-1
endloop
endfacet
facet normal -7.073847297995456e-1 3.0949367564487845e-1 6.354687315535255e-1
outer loop
vertex -6.96885475261667e-2 -4.9385037585328756e-1 8.667498558484217e-1
vertex 3.1343034368616135e-1 4.842676785458529e-1 8.168514156029757e-1
vertex -8.580407506826113e-1 3.156959486518509e-1 -4.050952211182314e-1
endloop
endfacet
facet normal -6.967113523677923e-2 -4.935752229604957e-1 8.66907972159857e-1
outer loop
vertex -7.938015081328813e-1 -5.97816342601364e-1 1.1178007964164176e-1
vertex 8.580195132368791e-1 -3.15609841906056e-1 4.0520728349424273e-1
vertex 3.1343034368616135e-1 4.842676785458529e-1 8.168514156029757e-1
endloop
endfacet
facet normal -2.313695742828956e-1 4.667113014008239e-1 8.53609208737172e-1
outer loop
vertex -7.938015081328813e-1 -5.97816342601364e-1 1.1178007964164176e-1
vertex 8.580195132368791e-1 -3.15609841906056e-1 4.0520728349424273e-1
vertex -8.580407506826113e-1 3.156959486518509e-1 -4.050952211182314e-1
endloop
endfacet
facet normal -7.073385023014601e-1 3.0976785704515397e-1 6.353865893324947e-1
outer loop
vertex -7.938015081328813e-1 -5.97816342601364e-1 1.1178007964164176e-1
vertex 3.1343034368616135e-1 4.842676785458529e-1 8.168514156029757e-1
vertex -8.580407506826113e-1 3.156959486518509e-1 -4.050952211182314e-1
endloop
endfacet
facet normal -5.075818158380286e-1 -6.415586949895431e-1 5.751201101629851e-1
outer loop
vertex 8.580195132368791e-1 -3.15609841906056e-1 4.0520728349424273e-1
vertex 3.1343034368616135e-1 4.842676785458529e-1 8.168514156029757e-1
vertex -8.580407506826113e-1 3.156959486518509e-1 -4.050952211182314e-1
endloop
endfacet
endsolid number12
