solid number32
facet normal 7.328582546690718e-1 7.874094540022182e-2 -6.758096197013483e-1
outer loop
vertex 6.579074032749749e-1 -3.073381263201647e-1 -6.875326354624848e-1
vertex 5.052189731111841e-1 3.847621737720482e-1 -7.724712673249983e-1
vertex 9.252984234137064e-1 1.6203422723597424e-1 -3.428815201088419e-1
endloop
endfacet
facet normal 3.43790612686439e-1 4.2063039108130906e-1 -8.395701809422889e-1
outer loop
vertex 6.579074032749749e-1 -3.073381263201647e-1 -6.875326354624848e-1
vertex 6.706692616011625e-1 7.229096415427494e-1 -1.661456942201175e-1
vertex 9.252984234137064e-1 1.6203422723597424e-1 -3.428815201088419e-1
endloop
endfacet
facet normal 1.994449101068666e-2 -7.941020621858824e-1 -6.074571031031355e-1
outer loop
vertex 6.579074032749749e-1 -3.073381263201647e-1 -6.875326354624848e-1
vertex -4.808557400368974e-1 -2.1083691283675587e-1 -8.51073177499464e-1
vertex 1.3390468772873698e-1 -9.160853279773852e-2 -9.86750936823936e-1
endloop
endfacet
facet normal -1.1348949704151635e-1 9.641508787555637e-1 -2.3986082851549131e-1
outer loop
vertex 6.904571981418976e-2 9.917923595959257e-1 1.0761321490637867e-1
vertex 1.454292957080817e-1 8.466723369703482e-1 -5.11855715762773e-1
vertex -4.682944030111784e-1 8.19736513503876e-1 -3.297459636400627e-1
endloop
endfacet
facet normal -9.629208823454262e-1 -1.2129381948571748e-1 -2.4097963336695494e-1
outer loop
vertex -9.256093613666347e-1 -1.6170180396046546e-1 3.4219853410904877e-1
vertex -9.174370405173321e-1 3.9686645188280706e-1 2.8395352731580444e-2
vertex -7.525675633119926e-1 3.044770685503765e-1 -5.838970606002564e-1
endloop
endfacet
facet normal -1.607910732708954e-1 -2.982440541055979e-1 9.408489331168158e-1
outer loop
vertex -5.05786888750941e-1 -3.843351961683048e-1 7.723121649656399e-1
vertex 1.98342699323128e-1 -4.443355782816043e-1 8.73628105945755e-1
vertex -1.3415464250896245e-1 9.166042664062157e-2 9.867121657714327e-1
endloop
endfacet
facet normal -7.61030611660037e-1 3.4740710742571623e-1 5.478509923569062e-1
outer loop
vertex -5.05786888750941e-1 -3.843351961683048e-1 7.723121649656399e-1
vertex -1.3415464250896245e-1 9.166042664062157e-2 9.867121657714327e-1
vertex -4.818857873227287e-2 6.750864512367142e-1 7.361631233880049e-1
endloop
endfacet
facet normal -3.5023204902056704e-1 9.076643253143379e-1 -2.3126388475186316e-1
outer loop
vertex -9.174370405173321e-1 3.9686645188280706e-1 2.8395352731580444e-2
vertex -1.9848213252409563e-1 4.444835410170471e-1 -8.73521164502403e-1
vertex -7.525675633119926e-1 3.044770685503765e-1 -5.838970606002564e-1
endloop
endfacet
facet normal -3.8464458429235787e-1 -4.1279723291886267e-1 8.256191544950309e-1
outer loop
vertex -1.3415464250896245e-1 9.166042664062157e-2 9.867121657714327e-1
vertex -1.4576567267666019e-1 -8.46333830178425e-1 5.123196429619284e-1
vertex 1.98342699323128e-1 -4.443355782816043e-1 8.73628105945755e-1
endloop
endfacet
facet normal -1.6517595035001986e-1 -8.68235558216619e-1 -4.678503188779972e-1
outer loop
vertex 4.856936992353334e-2 -6.752661557505979e-1 -7.359732571249042e-1
vertex -6.871291512147577e-2 -9.918829244062543e-1 -1.0698971710779256e-1
vertex -5.27558335581933e-1 -7.152549177169035e-1 -4.5835859895916214e-1
endloop
endfacet
endsolid number32
