solid number4
facet normal 6.675883801059158e-1 -7.331806334533575e-1 1.2950642252989883e-1
outer loop
vertex -4.6599782173064497e-1 -8.84100310714647e-1 -3.4823422240763444e-2
vertex 6.857378300899966e-1 4.24029106492765e-2 -7.266124287073077e-1
vertex 4.468742168311381e-1 1.1007259855469848e-1 8.877992213214501e-1
endloop
endfacet
facet normal -6.867845716648081e-1 -4.275975473465634e-2 7.256022019662137e-1
outer loop
vertex -4.6599782173064497e-1 -8.84100310714647e-1 -3.4823422240763444e-2
vertex 4.468742168311381e-1 1.1007259855469848e-1 8.877992213214501e-1
vertex -6.68048933267895e-1 7.325317130487565e-1 -1.3079721762133065e-1
endloop
endfacet
facet normal -4.4626497819698624e-1 -1.0851056150945568e-1 -8.882978257745237e-1
outer loop
vertex -4.6599782173064497e-1 -8.84100310714647e-1 -3.4823422240763444e-2
vertex -6.68048933267895e-1 7.325317130487565e-1 -1.3079721762133065e-1
vertex 6.857378300899966e-1 4.24029106492765e-2 -7.266124287073077e-1
endloop
endfacet
facet normal 4.6498256049545905e-1 8.847516910764344e-1 3.171219911133107e-2
outer loop
vertex 4.468742168311381e-1 1.1007259855469848e-1 8.877992213214501e-1
vertex 6.857378300899966e-1 4.24029106492765e-2 -7.266124287073077e-1
vertex -6.68048933267895e-1 7.325317130487565e-1 -1.3079721762133065e-1
endloop
endfacet
endsolid number4
