solid number4
facet normal -7.001628794743086e-1 -3.500348210453575e-1 6.222921872095046e-1
outer loop
vertex 2.4470347885538515e-1 3.170738546694038e-1 9.162883706132899e-1
vertex -8.571431795695892e-1 4.515582663329047e-1 -2.4779165002831788e-1
vertex 1.2319537278359553e-2 -9.963905131945097e-1 -8.39891315422941e-2
endloop
endfacet
facet normal 4.4036670057253514e-2 9.963282576189696e-1 7.342189564575817e-2
outer loop
vertex -8.571431795695892e-1 4.515582663329047e-1 -2.4779165002831788e-1
vertex 2.4470347885538515e-1 3.170738546694038e-1 9.162883706132899e-1
vertex 7.073966427487829e-1 4.0674520872212155e-1 -5.780556417935462e-1
endloop
endfacet
facet normal -2.0726421503029674e-1 -2.319721975478055e-1 -9.503843668393945e-1
outer loop
vertex 1.2319537278359553e-2 -9.963905131945097e-1 -8.39891315422941e-2
vertex -8.571431795695892e-1 4.515582663329047e-1 -2.4779165002831788e-1
vertex 7.073966427487829e-1 4.0674520872212155e-1 -5.780556417935462e-1
endloop
endfacet
facet normal 8.989173340438479e-1 -3.547919991497056e-1 2.570413661161496e-1
outer loop
vertex 2.4470347885538515e-1 3.170738546694038e-1 9.162883706132899e-1
vertex 1.2319537278359553e-2 -9.963905131945097e-1 -8.39891315422941e-2
vertex 7.073966427487829e-1 4.0674520872212155e-1 -5.780556417935462e-1
endloop
endfacet
endsolid number4
