solid number8
facet normal -1.8552480491429976e-2 8.995050877656373e-1 -4.3651621109799366e-1
outer loop
vertex -8.583491875441677e-1 1.283585346264306e-2 -5.129053646708648e-1
vertex -2.6762786037835234e-1 6.283847757870403e-1 7.304162524946829e-1
vertex 9.229297928231462e-1 3.6201899735897114e-1 1.309306804023777e-1
endloop
endfacet
facet normal -3.6432675685118855e-2 9.172397264732504e-1 -3.9666603625934493e-1
outer loop
vertex -8.583491875441677e-1 1.283585346264306e-2 -5.129053646708648e-1
vertex 9.229297928231462e-1 3.6201899735897114e-1 1.309306804023777e-1
vertex 4.410337933493367e-1 -9.947750466682961e-2 -8.919604358878008e-1
endloop
endfacet
facet normal 3.314694056015291e-1 4.655950865496902e-2 -9.423164252542651e-1
outer loop
vertex -8.583491875441677e-1 1.283585346264306e-2 -5.129053646708648e-1
vertex 9.229297928231462e-1 3.6201899735897114e-1 1.309306804023777e-1
vertex -9.516766183941724e-2 -9.516401718572688e-1 -2.9210289188483984e-1
endloop
endfacet
facet normal -2.987251212015336e-1 8.903386507216879e-1 3.4359916908254207e-1
outer loop
vertex -8.583491875441677e-1 1.283585346264306e-2 -5.129053646708648e-1
vertex -6.36817752613354e-1 -3.7150679849519863e-1 6.756077624097618e-1
vertex 9.229297928231462e-1 3.6201899735897114e-1 1.309306804023777e-1
endloop
endfacet
facet normal 3.7291098410726153e-1 -6.046868163681118e-1 -7.037693173496206e-1
outer loop
vertex -8.583491875441677e-1 1.283585346264306e-2 -5.129053646708648e-1
vertex 9.229297928231462e-1 3.6201899735897114e-1 1.309306804023777e-1
vertex 4.985465798290293e-1 -5.38208646254986e-1 6.795459961159014e-1
endloop
endfacet
facet normal 3.757283597492349e-1 -2.9990925491427983e-1 -8.76859531793383e-1
outer loop
vertex -8.583491875441677e-1 1.283585346264306e-2 -5.129053646708648e-1
vertex -4.121564643719392e-2 8.861924995811358e-1 -4.614803616351436e-1
vertex 9.229297928231462e-1 3.6201899735897114e-1 1.309306804023777e-1
endloop
endfacet
facet normal -4.602891019537546e-2 9.037558928892055e-1 -4.2556624101808255e-1
outer loop
vertex -8.583491875441677e-1 1.283585346264306e-2 -5.129053646708648e-1
vertex -2.6762786037835234e-1 6.283847757870403e-1 7.304162524946829e-1
vertex 4.410337933493367e-1 -9.947750466682961e-2 -8.919604358878008e-1
endloop
endfacet
facet normal -7.102986732541854e-1 -4.354398465888504e-1 5.530532838488734e-1
outer loop
vertex -8.583491875441677e-1 1.283585346264306e-2 -5.129053646708648e-1
vertex -9.516766183941724e-2 -9.516401718572688e-1 -2.9210289188483984e-1
vertex -2.6762786037835234e-1 6.283847757870403e-1 7.304162524946829e-1
endloop
endfacet
facet normal -9.073224129369868e-1 3.200669219661207e-1 2.726228245128004e-1
outer loop
vertex -8.583491875441677e-1 1.283585346264306e-2 -5.129053646708648e-1
vertex -6.36817752613354e-1 -3.7150679849519863e-1 6.756077624097618e-1
vertex -2.6762786037835234e-1 6.283847757870403e-1 7.304162524946829e-1
endloop
endfacet
facet normal -6.82238718754471e-1 -4.7240153670585855e-1 5.580207153414657e-1
outer loop
vertex -8.583491875441677e-1 1.283585346264306e-2 -5.129053646708648e-1
vertex 4.985465798290293e-1 -5.38208646254986e-1 6.795459961159014e-1
vertex -2.6762786037835234e-1 6.283847757870403e-1 7.304162524946829e-1
endloop
endfacet
facet normal -7.304540581928647e-1 6.829031180727604e-1 8.95545621821513e-3
outer loop
vertex -8.583491875441677e-1 1.283585346264306e-2 -5.129053646708648e-1
vertex -2.6762786037835234e-1 6.283847757870403e-1 7.304162524946829e-1
vertex -4.121564643719392e-2 8.861924995811358e-1 -4.614803616351436e-1
endloop
endfacet
facet normal -2.872151473623874e-1 -4.2391575227454276e-1 -8.589545355250827e-1
outer loop
vertex -8.583491875441677e-1 1.283585346264306e-2 -5.129053646708648e-1
vertex 4.410337933493367e-1 -9.947750466682961e-2 -8.919604358878008e-1
vertex -9.516766183941724e-2 -9.516401718572688e-1 -2.9210289188483984e-1
endloop
endfacet
facet normal -1.6241706429814887e-1 -9.473151083453895e-1 -2.7607024962015364e-1
outer loop
vertex -8.583491875441677e-1 1.283585346264306e-2 -5.129053646708648e-1
vertex 4.410337933493367e-1 -9.947750466682961e-2 -8.919604358878008e-1
vertex -6.36817752613354e-1 -3.7150679849519863e-1 6.756077624097618e-1
endloop
endfacet
facet normal -1.582180308083946e-1 -9.525217290326489e-1 -2.6013344738377436e-1
outer loop
vertex -8.583491875441677e-1 1.283585346264306e-2 -5.129053646708648e-1
vertex 4.410337933493367e-1 -9.947750466682961e-2 -8.919604358878008e-1
vertex 4.985465798290293e-1 -5.38208646254986e-1 6.795459961159014e-1
endloop
endfacet
facet normal -2.457337186929734e-1 2.844776452970275e-1 -9.266538775743516e-1
outer loop
vertex -8.583491875441677e-1 1.283585346264306e-2 -5.129053646708648e-1
vertex -4.121564643719392e-2 8.861924995811358e-1 -4.614803616351436e-1
vertex 4.410337933493367e-1 -9.947750466682961e-2 -8.919604358878008e-1
endloop
endfacet
facet normal -7.763232123507899e-1 -6.276365036824072e-1 -5.826396150858604e-2
outer loop
vertex -8.583491875441677e-1 1.283585346264306e-2 -5.129053646708648e-1
vertex -9.516766183941724e-2 -9.516401718572688e-1 -2.9210289188483984e-1
vertex -6.36817752613354e-1 -3.7150679849519863e-1 6.756077624097618e-1
endloop
endfacet
facet normal -6.903694973132954e-1 -4.097909360208045e-1 5.962057915976502e-1
outer loop
vertex -8.583491875441677e-1 1.283585346264306e-2 -5.129053646708648e-1
vertex -9.516766183941724e-2 -9.516401718572688e-1 -2.9210289188483984e-1
vertex 4.985465798290293e-1 -5.38208646254986e-1 6.795459961159014e-1
endloop
endfacet
facet normal 1.6364963108371364e-1 -9.529800250255001e-2 -9.81904826836689e-1
outer loop
vertex -8.583491875441677e-1 1.283585346264306e-2 -5.129053646708648e-1
vertex -4.121564643719392e-2 8.861924995811358e-1 -4.614803616351436e-1
vertex -9.516766183941724e-2 -9.516401718572688e-1 -2.9210289188483984e-1
endloop
endfacet
facet normal -1.3844927089205422e-1 -9.495880451448604e-1 -2.8127272158426786e-1
outer loop
vertex -8.583491875441677e-1 1.283585346264306e-2 -5.129053646708648e-1
vertex 4.985465798290293e-1 -5.38208646254986e-1 6.795459961159014e-1
vertex -6.36817752613354e-1 -3.7150679849519863e-1 6.756077624097618e-1
endloop
endfacet
facet normal -6.97826273872858e-1 6.331875463550951e-1 3.348313346052566e-1
outer loop
vertex -8.583491875441677e-1 1.283585346264306e-2 -5.129053646708648e-1
vertex -6.36817752613354e-1 -3.7150679849519863e-1 6.756077624097618e-1
vertex -4.121564643719392e-2 8.861924995811358e-1 -4.614803616351436e-1
endloop
endfacet
facet normal -4.967876714027722e-1 4.2009004771584924e-1 7.594250202306392e-1
outer loop
vertex -8.583491875441677e-1 1.283585346264306e-2 -5.129053646708648e-1
vertex 4.985465798290293e-1 -5.38208646254986e-1 6.795459961159014e-1
vertex -4.121564643719392e-2 8.861924995811358e-1 -4.614803616351436e-1
endloop
endfacet
facet normal -2.5405228052331544e-3 9.119675830603474e-1 -4.102544005747464e-1
outer loop
vertex 9.229297928231462e-1 3.6201899735897114e-1 1.309306804023777e-1
vertex 4.410337933493367e-1 -9.947750466682961e-2 -8.919604358878008e-1
vertex -2.6762786037835234e-1 6.283847757870403e-1 7.304162524946829e-1
endloop
endfacet
facet normal 2.9987707959161863e-1 -4.9501839113257085e-1 8.154940401843064e-1
outer loop
vertex 9.229297928231462e-1 3.6201899735897114e-1 1.309306804023777e-1
vertex -2.6762786037835234e-1 6.283847757870403e-1 7.304162524946829e-1
vertex -9.516766183941724e-2 -9.516401718572688e-1 -2.9210289188483984e-1
endloop
endfacet
facet normal 4.0500785196714884e-1 -1.9846365552065617e-1 8.925137630772618e-1
outer loop
vertex 9.229297928231462e-1 3.6201899735897114e-1 1.309306804023777e-1
vertex -2.6762786037835234e-1 6.283847757870403e-1 7.304162524946829e-1
vertex -6.36817752613354e-1 -3.7150679849519863e-1 6.756077624097618e-1
endloop
endfacet
facet normal 4.809727047640106e-1 2.796508839473696e-1 8.309396129559877e-1
outer loop
vertex 9.229297928231462e-1 3.6201899735897114e-1 1.309306804023777e-1
vertex -2.6762786037835234e-1 6.283847757870403e-1 7.304162524946829e-1
vertex 4.985465798290293e-1 -5.38208646254986e-1 6.795459961159014e-1
endloop
endfacet
facet normal 3.3340103517675196e-1 9.064004967330207e-1 2.593875271966706e-1
outer loop
vertex 9.229297928231462e-1 3.6201899735897114e-1 1.309306804023777e-1
vertex -4.121564643719392e-2 8.861924995811358e-1 -4.614803616351436e-1
vertex -2.6762786037835234e-1 6.283847757870403e-1 7.304162524946829e-1
endloop
endfacet
facet normal 8.027024547430743e-1 -5.853705782121996e-1 -1.1406162945073954e-1
outer loop
vertex 9.229297928231462e-1 3.6201899735897114e-1 1.309306804023777e-1
vertex -9.516766183941724e-2 -9.516401718572688e-1 -2.9210289188483984e-1
vertex 4.410337933493367e-1 -9.947750466682961e-2 -8.919604358878008e-1
endloop
endfacet
facet normal 4.6757266615472576e-1 -8.672569997999667e-1 1.710002870258471e-1
outer loop
vertex 9.229297928231462e-1 3.6201899735897114e-1 1.309306804023777e-1
vertex -6.36817752613354e-1 -3.7150679849519863e-1 6.756077624097618e-1
vertex 4.410337933493367e-1 -9.947750466682961e-2 -8.919604358878008e-1
endloop
endfacet
facet normal 8.466552568633674e-1 -5.037109066388451e-1 -1.7161060153352434e-1
outer loop
vertex 9.229297928231462e-1 3.6201899735897114e-1 1.309306804023777e-1
vertex 4.985465798290293e-1 -5.38208646254986e-1 6.795459961159014e-1
vertex 4.410337933493367e-1 -9.947750466682961e-2 -8.919604358878008e-1
endloop
endfacet
facet normal 6.335195173243621e-1 5.483535188786433e-1 -5.458584427326526e-1
outer loop
vertex 9.229297928231462e-1 3.6201899735897114e-1 1.309306804023777e-1
vertex 4.410337933493367e-1 -9.947750466682961e-2 -8.919604358878008e-1
vertex -4.121564643719392e-2 8.861924995811358e-1 -4.614803616351436e-1
endloop
endfacet
facet normal 4.992075287428087e-1 -5.909555522145559e-1 6.33690285986212e-1
outer loop
vertex 9.229297928231462e-1 3.6201899735897114e-1 1.309306804023777e-1
vertex -6.36817752613354e-1 -3.7150679849519863e-1 6.756077624097618e-1
vertex -9.516766183941724e-2 -9.516401718572688e-1 -2.9210289188483984e-1
endloop
endfacet
facet normal 8.018755265027988e-1 -5.372957426961353e-1 -2.613597613950307e-1
outer loop
vertex 9.229297928231462e-1 3.6201899735897114e-1 1.309306804023777e-1
vertex 4.985465798290293e-1 -5.38208646254986e-1 6.795459961159014e-1
vertex -9.516766183941724e-2 -9.516401718572688e-1 -2.9210289188483984e-1
endloop
endfacet
facet normal 4.83418137015212e-1 -9.439817228319751e-2 -8.702849475168082e-1
outer loop
vertex 9.229297928231462e-1 3.6201899735897114e-1 1.309306804023777e-1
vertex -9.516766183941724e-2 -9.516401718572688e-1 -2.9210289188483984e-1
vertex -4.121564643719392e-2 8.861924995811358e-1 -4.614803616351436e-1
endloop
endfacet
facet normal 6.96716944538119e-2 4.949776708969446e-1 8.661079380223753e-1
outer loop
vertex 9.229297928231462e-1 3.6201899735897114e-1 1.309306804023777e-1
vertex -6.36817752613354e-1 -3.7150679849519863e-1 6.756077624097618e-1
vertex 4.985465798290293e-1 -5.38208646254986e-1 6.795459961159014e-1
endloop
endfacet
facet normal -7.067479821346362e-2 6.871756934566587e-1 7.230453922264124e-1
outer loop
vertex 9.229297928231462e-1 3.6201899735897114e-1 1.309306804023777e-1
vertex -4.121564643719392e-2 8.861924995811358e-1 -4.614803616351436e-1
vertex -6.36817752613354e-1 -3.7150679849519863e-1 6.756077624097618e-1
endloop
endfacet
facet normal -1.8026357218576022e-1 5.724432410705453e-1 7.998836042171877e-1
outer loop
vertex 9.229297928231462e-1 3.6201899735897114e-1 1.309306804023777e-1
vertex -4.121564643719392e-2 8.861924995811358e-1 -4.614803616351436e-1
vertex 4.985465798290293e-1 -5.38208646254986e-1 6.795459961159014e-1
endloop
endfacet
facet normal -8.579778541106291e-1 2.097965046068665e-1 -4.688917023263056e-1
outer loop
vertex -2.6762786037835234e-1 6.283847757870403e-1 7.304162524946829e-1
vertex 4.410337933493367e-1 -9.947750466682961e-2 -8.919604358878008e-1
vertex -9.516766183941724e-2 -9.516401718572688e-1 -2.9210289188483984e-1
endloop
endfacet
facet normal -8.047880421033957e-1 3.243986141543548e-1 -4.9707318014766916e-1
outer loop
vertex -2.6762786037835234e-1 6.283847757870403e-1 7.304162524946829e-1
vertex 4.410337933493367e-1 -9.947750466682961e-2 -8.919604358878008e-1
vertex -6.36817752613354e-1 -3.7150679849519863e-1 6.756077624097618e-1
endloop
endfacet
facet normal 8.321511336559065e-1 5.41264134125414e-1 1.2065499519147693e-1
outer loop
vertex -2.6762786037835234e-1 6.283847757870403e-1 7.304162524946829e-1
vertex 4.985465798290293e-1 -5.38208646254986e-1 6.795459961159014e-1
vertex 4.410337933493367e-1 -9.947750466682961e-2 -8.919604358878008e-1
endloop
endfacet
facet normal 9.087718985033997e-1 3.3736254360465634e-1 2.456016096509203e-1
outer loop
vertex -2.6762786037835234e-1 6.283847757870403e-1 7.304162524946829e-1
vertex 4.410337933493367e-1 -9.947750466682961e-2 -8.919604358878008e-1
vertex -4.121564643719392e-2 8.861924995811358e-1 -4.614803616351436e-1
endloop
endfacet
facet normal 7.405948892003138e-1 -3.062350286882753e-1 5.981131308495627e-1
outer loop
vertex -2.6762786037835234e-1 6.283847757870403e-1 7.304162524946829e-1
vertex -6.36817752613354e-1 -3.7150679849519863e-1 6.756077624097618e-1
vertex -9.516766183941724e-2 -9.516401718572688e-1 -2.9210289188483984e-1
endloop
endfacet
facet normal -6.582220803800037e-1 -4.583375834133012e-1 5.972188481043402e-1
outer loop
vertex -2.6762786037835234e-1 6.283847757870403e-1 7.304162524946829e-1
vertex -9.516766183941724e-2 -9.516401718572688e-1 -2.9210289188483984e-1
vertex 4.985465798290293e-1 -5.38208646254986e-1 6.795459961159014e-1
endloop
endfacet
facet normal -9.828304726800482e-1 1.1882788657533987e-2 -1.841278395714069e-1
outer loop
vertex -2.6762786037835234e-1 6.283847757870403e-1 7.304162524946829e-1
vertex -4.121564643719392e-2 8.861924995811358e-1 -4.614803616351436e-1
vertex -9.516766183941724e-2 -9.516401718572688e-1 -2.9210289188483984e-1
endloop
endfacet
facet normal -1.090995604803579e-2 -5.0712354917850866e-2 9.986537087087374e-1
outer loop
vertex -2.6762786037835234e-1 6.283847757870403e-1 7.304162524946829e-1
vertex -6.36817752613354e-1 -3.7150679849519863e-1 6.756077624097618e-1
vertex 4.985465798290293e-1 -5.38208646254986e-1 6.795459961159014e-1
endloop
endfacet
facet normal -9.314487910737328e-1 3.4947400719758787e-1 -1.01346277191329e-1
outer loop
vertex -2.6762786037835234e-1 6.283847757870403e-1 7.304162524946829e-1
vertex -4.121564643719392e-2 8.861924995811358e-1 -4.614803616351436e-1
vertex -6.36817752613354e-1 -3.7150679849519863e-1 6.756077624097618e-1
endloop
endfacet
facet normal 8.108702485915702e-1 5.209189122376637e-1 2.667075679881892e-1
outer loop
vertex -2.6762786037835234e-1 6.283847757870403e-1 7.304162524946829e-1
vertex 4.985465798290293e-1 -5.38208646254986e-1 6.795459961159014e-1
vertex -4.121564643719392e-2 8.861924995811358e-1 -4.614803616351436e-1
endloop
endfacet
facet normal -8.271818315877404e-1 1.3682970439859335e-1 -5.450209624274506e-1
outer loop
vertex 4.410337933493367e-1 -9.947750466682961e-2 -8.919604358878008e-1
vertex -9.516766183941724e-2 -9.516401718572688e-1 -2.9210289188483984e-1
vertex -6.36817752613354e-1 -3.7150679849519863e-1 6.756077624097618e-1
endloop
endfacet
facet normal 7.593382558690441e-1 -6.190026155355337e-1 -2.006020317293078e-1
outer loop
vertex 4.410337933493367e-1 -9.947750466682961e-2 -8.919604358878008e-1
vertex 4.985465798290293e-1 -5.38208646254986e-1 6.795459961159014e-1
vertex -9.516766183941724e-2 -9.516401718572688e-1 -2.9210289188483984e-1
endloop
endfacet
facet normal -7.133372743690326e-1 -4.3523091467088416e-2 -6.994681361612601e-1
outer loop
vertex 4.410337933493367e-1 -9.947750466682961e-2 -8.919604358878008e-1
vertex -9.516766183941724e-2 -9.516401718572688e-1 -2.9210289188483984e-1
vertex -4.121564643719392e-2 8.861924995811358e-1 -4.614803616351436e-1
endloop
endfacet
facet normal -1.393246631645556e-1 -9.550839525725769e-1 -2.6154021062243343e-1
outer loop
vertex 4.410337933493367e-1 -9.947750466682961e-2 -8.919604358878008e-1
vertex 4.985465798290293e-1 -5.38208646254986e-1 6.795459961159014e-1
vertex -6.36817752613354e-1 -3.7150679849519863e-1 6.756077624097618e-1
endloop
endfacet
facet normal -8.04131407558485e-1 -1.4124491328819644e-1 -5.774275312523812e-1
outer loop
vertex 4.410337933493367e-1 -9.947750466682961e-2 -8.919604358878008e-1
vertex -6.36817752613354e-1 -3.7150679849519863e-1 6.756077624097618e-1
vertex -4.121564643719392e-2 8.861924995811358e-1 -4.614803616351436e-1
endloop
endfacet
facet normal 9.088109549180703e-1 4.092697631605924e-1 8.099943940162804e-2
outer loop
vertex 4.410337933493367e-1 -9.947750466682961e-2 -8.919604358878008e-1
vertex -4.121564643719392e-2 8.861924995811358e-1 -4.614803616351436e-1
vertex 4.985465798290293e-1 -5.38208646254986e-1 6.795459961159014e-1
endloop
endfacet
facet normal -1.309186174312924e-1 -8.809089376110629e-1 4.5481838050679896e-1
outer loop
vertex -9.516766183941724e-2 -9.516401718572688e-1 -2.9210289188483984e-1
vertex 4.985465798290293e-1 -5.38208646254986e-1 6.795459961159014e-1
vertex -6.36817752613354e-1 -3.7150679849519863e-1 6.756077624097618e-1
endloop
endfacet
facet normal -8.771400989048436e-1 -1.8476771804094527e-2 -4.798790012043669e-1
outer loop
vertex -9.516766183941724e-2 -9.516401718572688e-1 -2.9210289188483984e-1
vertex -6.36817752613354e-1 -3.7150679849519863e-1 6.756077624097618e-1
vertex -4.121564643719392e-2 8.861924995811358e-1 -4.614803616351436e-1
endloop
endfacet
facet normal 8.643436024824707e-1 -7.125456172506789e-2 -4.9782820759875906e-1
outer loop
vertex -9.516766183941724e-2 -9.516401718572688e-1 -2.9210289188483984e-1
vertex -4.121564643719392e-2 8.861924995811358e-1 -4.614803616351436e-1
vertex 4.985465798290293e-1 -5.38208646254986e-1 6.795459961159014e-1
endloop
endfacet
facet normal 9.185077624589277e-2 6.435245833076629e-1 7.598944305505375e-1
outer loop
vertex -6.36817752613354e-1 -3.7150679849519863e-1 6.756077624097618e-1
vertex 4.985465798290293e-1 -5.38208646254986e-1 6.795459961159014e-1
vertex -4.121564643719392e-2 8.861924995811358e-1 -4.614803616351436e-1
endloop
endfacet
endsolid number8
