<svg height="1000" width="1000">  <text x="500" y="500" fill="red">0</text>  <text x="303.55061066958575" y="357.27116400495447" fill="red">1</text>  <text x="575.0369896222269" y="269.05989229733745" fill="red">2</text>  <text x="742.8247992164945" y="500" fill="red">3</text>  <text x="575.0369895480348" y="730.9401076466136" fill="red">4</text>  <text x="303.5506105423885" y="642.728835864448" fill="red">5</text>  <text x="142.2291235462468" y="499.99999998420895" fill="red">6</text>  <text x="389.442719062177" y="159.73967665937465" fill="red">7</text>  <text x="789.4427190538241" y="289.7075551792193" fill="red">8</text>  <text x="789.4427190224196" y="710.2924447673013" fill="red">9</text>  <text x="389.4427190319175" y="840.2603232591939" fill="red">10</text>  <text x="182.138211065723" y="269.05989233044653" fill="red">11</text>  <text x="621.4123996540987" y="126.33105642642232" fill="red">12</text>  <text x="892.8987785097848" y="500.0000000497567" fill="red">13</text>  <text x="621.4123996018875" y="873.6689435705616" fill="red">14</text>  <text x="182.1382110340964" y="730.940107593779" fill="red">15</text>  <text x="332.75445870470577" y="499.9999999534605" fill="blue">0</text>  <text x="448.31828548003716" y="340.9400381704912" fill="blue">1</text>  <text x="635.3044850406813" y="401.6955373148694" fill="blue">2</text>  <text x="635.3044850406813" y="598.3044626515888" fill="blue">3</text>  <text x="448.3182853423086" y="659.0599617953916" fill="blue">4</text>  <text x="217.023603327976" y="499.9999998968881" fill="blue">5</text>  <text x="412.5554844476325" y="230.87345405334884" fill="blue">6</text>  <text x="728.9327137591222" y="333.6706473798802" fill="blue">7</text>  <text x="728.9327136681662" y="666.32935258512" fill="blue">8</text>  <text x="412.5554843495289" y="769.126545782465" fill="blue">9</text>  <text x="165.3418889031987" y="340.94003820255386" fill="blue">10</text>  <text x="245.30994318971665" y="230.87345405066082" fill="blue">11</text>  <text x="547.859969482214" y="132.5689914253532" fill="blue">12</text>  <text x="677.2509993465526" y="174.61068555279036" fill="blue">13</text>  <text x="864.2371988257504" y="431.9751099792134" fill="blue">14</text>  <text x="864.2371988055779" y="568.0248899854432" fill="blue">15</text>  <text x="677.2509993069223" y="825.3893144084575" fill="blue">16</text>  <text x="547.8599694433267" y="867.4310085202408" fill="blue">17</text>  <text x="245.3099431754811" y="769.1265458703667" fill="blue">18</text>  <text x="165.34188888105376" y="659.0599616818588" fill="blue">19</text>  <text x="81.71911834498263" y="401.6955373315132" fill="blue">20</text>  <text x="277.25099935881564" y="132.56899139756314" fill="blue">21</text>  <text x="464.2371989190184" y="71.81349225464612" fill="blue">22</text>  <text x="780.6144283311569" y="174.6106855690664" fill="blue">23</text>  <text x="896.1782550771068" y="333.67064736715986" fill="blue">24</text>  <text x="896.1782550469315" y="666.3293527977933" fill="blue">25</text>  <text x="780.6144283891022" y="825.3893144366732" fill="blue">26</text>  <text x="464.2371988316885" y="928.186507734326" fill="blue">27</text>  <text x="277.25099932059913" y="867.4310085827317" fill="blue">28</text>  <text x="81.71911832466776" y="598.3044625981951" fill="blue">29</text>  <line x1="332.75445870470577" y1="499.9999999534605" x2="448.31828548003716" y2="340.9400381704912" style="stroke:black;stroke-width:1">0</line>  <text x="390.53637209237143" y="420.4700190619758" fill="green">0.49152</text>  <line x1="332.75445870470577" y1="499.9999999534605" x2="448.3182853423086" y2="659.0599617953916" style="stroke:black;stroke-width:1">0</line>  <text x="390.53637202350717" y="579.529980874426" fill="green">0.49152</text>  <line x1="332.75445870470577" y1="499.9999999534605" x2="217.023603327976" y2="499.9999998968881" style="stroke:black;stroke-width:1">0</line>  <text x="274.88903101634093" y="499.9999999251743" fill="green">0.34012</text>  <line x1="448.31828548003716" y1="340.9400381704912" x2="635.3044850406813" y2="401.6955373148694" style="stroke:black;stroke-width:1">1</line>  <text x="541.8113852603592" y="371.3177877426803" fill="green">0.49152</text>  <line x1="448.31828548003716" y1="340.9400381704912" x2="412.5554844476325" y2="230.87345405334884" style="stroke:black;stroke-width:1">1</line>  <text x="430.4368849638348" y="285.90674611192003" fill="green">0.34012</text>  <line x1="635.3044850406813" y1="401.6955373148694" x2="635.3044850406813" y2="598.3044626515888" style="stroke:black;stroke-width:1">2</line>  <text x="635.3044850406813" y="499.9999999832291" fill="green">0.49152</text>  <line x1="635.3044850406813" y1="401.6955373148694" x2="728.9327137591222" y2="333.6706473798802" style="stroke:black;stroke-width:1">2</line>  <text x="682.1185993999018" y="367.68309234737484" fill="green">0.34012</text>  <line x1="635.3044850406813" y1="598.3044626515888" x2="448.3182853423086" y2="659.0599617953916" style="stroke:black;stroke-width:1">3</line>  <text x="541.811385191495" y="628.6822122234902" fill="green">0.49152</text>  <line x1="635.3044850406813" y1="598.3044626515888" x2="728.9327136681662" y2="666.32935258512" style="stroke:black;stroke-width:1">3</line>  <text x="682.1185993544238" y="632.3169076183543" fill="green">0.34012</text>  <line x1="448.3182853423086" y1="659.0599617953916" x2="412.5554843495289" y2="769.126545782465" style="stroke:black;stroke-width:1">4</line>  <text x="430.43688484591877" y="714.0932537889282" fill="green">0.34012</text>  <line x1="217.023603327976" y1="499.9999998968881" x2="165.3418889031987" y2="340.94003820255386" style="stroke:black;stroke-width:1">5</line>  <text x="191.1827461155873" y="420.470019049721" fill="green">0.49152</text>  <line x1="217.023603327976" y1="499.9999998968881" x2="165.34188888105376" y2="659.0599616818588" style="stroke:black;stroke-width:1">5</line>  <text x="191.18274610451488" y="579.5299807893734" fill="green">0.49152</text>  <line x1="412.5554844476325" y1="230.87345405334884" x2="245.30994318971665" y2="230.87345405066082" style="stroke:black;stroke-width:1">6</line>  <text x="328.9327138186746" y="230.87345405200483" fill="green">0.49152</text>  <line x1="412.5554844476325" y1="230.87345405334884" x2="547.859969482214" y2="132.5689914253532" style="stroke:black;stroke-width:1">6</line>  <text x="480.20772696492326" y="181.72122273935105" fill="green">0.49152</text>  <line x1="728.9327137591222" y1="333.6706473798802" x2="677.2509993465526" y2="174.61068555279036" style="stroke:black;stroke-width:1">7</line>  <text x="703.0918565528373" y="254.14066646633532" fill="green">0.49152</text>  <line x1="728.9327137591222" y1="333.6706473798802" x2="864.2371988257504" y2="431.9751099792134" style="stroke:black;stroke-width:1">7</line>  <text x="796.5849562924363" y="382.8228786795468" fill="green">0.49152</text>  <line x1="728.9327136681662" y1="666.32935258512" x2="864.2371988055779" y2="568.0248899854432" style="stroke:black;stroke-width:1">8</line>  <text x="796.5849562368721" y="617.1771212852816" fill="green">0.49152</text>  <line x1="728.9327136681662" y1="666.32935258512" x2="677.2509993069223" y2="825.3893144084575" style="stroke:black;stroke-width:1">8</line>  <text x="703.0918564875442" y="745.8593334967886" fill="green">0.49152</text>  <line x1="412.5554843495289" y1="769.126545782465" x2="547.8599694433267" y2="867.4310085202408" style="stroke:black;stroke-width:1">9</line>  <text x="480.2077268964278" y="818.2787771513529" fill="green">0.49152</text>  <line x1="412.5554843495289" y1="769.126545782465" x2="245.3099431754811" y2="769.1265458703667" style="stroke:black;stroke-width:1">9</line>  <text x="328.93271376250504" y="769.1265458264158" fill="green">0.49152</text>  <line x1="165.3418889031987" y1="340.94003820255386" x2="245.30994318971665" y2="230.87345405066082" style="stroke:black;stroke-width:1">10</line>  <text x="205.32591604645762" y="285.90674612660734" fill="green">0.34012</text>  <line x1="165.3418889031987" y1="340.94003820255386" x2="81.71911834498263" y2="401.6955373315132" style="stroke:black;stroke-width:1">10</line>  <text x="123.53050362409067" y="371.31778776703356" fill="green">0.49152</text>  <line x1="245.30994318971665" y1="230.87345405066082" x2="277.25099935881564" y2="132.56899139756314" style="stroke:black;stroke-width:1">11</line>  <text x="261.2804712742661" y="181.72122272411195" fill="green">0.49152</text>  <line x1="547.859969482214" y1="132.5689914253532" x2="677.2509993465526" y2="174.61068555279036" style="stroke:black;stroke-width:1">12</line>  <text x="612.5554844143833" y="153.58983848907178" fill="green">0.34012</text>  <line x1="547.859969482214" y1="132.5689914253532" x2="464.2371989190184" y2="71.81349225464612" style="stroke:black;stroke-width:1">12</line>  <text x="506.0485842006162" y="102.19124183999969" fill="green">0.49152</text>  <line x1="677.2509993465526" y1="174.61068555279036" x2="780.6144283311569" y2="174.6106855690664" style="stroke:black;stroke-width:1">13</line>  <text x="728.9327138388546" y="174.61068556092834" fill="green">0.49152</text>  <line x1="864.2371988257504" y1="431.9751099792134" x2="864.2371988055779" y2="568.0248899854432" style="stroke:black;stroke-width:1">14</line>  <text x="864.2371988156642" y="499.99999998232834" fill="green">0.34012</text>  <line x1="864.2371988257504" y1="431.9751099792134" x2="896.1782550771068" y2="333.67064736715986" style="stroke:black;stroke-width:1">14</line>  <text x="880.2077269514285" y="382.82287867318666" fill="green">0.49152</text>  <line x1="864.2371988055779" y1="568.0248899854432" x2="896.1782550469315" y2="666.3293527977933" style="stroke:black;stroke-width:1">15</line>  <text x="880.2077269262547" y="617.1771213916182" fill="green">0.49152</text>  <line x1="677.2509993069223" y1="825.3893144084575" x2="547.8599694433267" y2="867.4310085202408" style="stroke:black;stroke-width:1">16</line>  <text x="612.5554843751245" y="846.4101614643491" fill="green">0.34012</text>  <line x1="677.2509993069223" y1="825.3893144084575" x2="780.6144283891022" y2="825.3893144366732" style="stroke:black;stroke-width:1">16</line>  <text x="728.9327138480121" y="825.3893144225653" fill="green">0.49152</text>  <line x1="547.8599694433267" y1="867.4310085202408" x2="464.2371988316885" y2="928.186507734326" style="stroke:black;stroke-width:1">17</line>  <text x="506.0485841375076" y="897.8087581272834" fill="green">0.49152</text>  <line x1="245.3099431754811" y1="769.1265458703667" x2="165.34188888105376" y2="659.0599616818588" style="stroke:black;stroke-width:1">18</line>  <text x="205.32591602826744" y="714.0932537761128" fill="green">0.34012</text>  <line x1="245.3099431754811" y1="769.1265458703667" x2="277.25099932059913" y2="867.4310085827317" style="stroke:black;stroke-width:1">18</line>  <text x="261.28047124804015" y="818.2787772265492" fill="green">0.49152</text>  <line x1="165.34188888105376" y1="659.0599616818588" x2="81.71911832466776" y2="598.3044625981951" style="stroke:black;stroke-width:1">19</line>  <text x="123.53050360286079" y="628.682212140027" fill="green">0.49152</text>  <line x1="81.71911834498263" y1="401.6955373315132" x2="81.71911832466776" y2="598.3044625981951" style="stroke:black;stroke-width:1">20</line>  <text x="81.71911833482517" y="499.9999999648541" fill="green">0.49152</text>  <line x1="277.25099935881564" y1="132.56899139756314" x2="464.2371989190184" y2="71.81349225464612" style="stroke:black;stroke-width:1">21</line>  <text x="370.744099138917" y="102.19124182610466" fill="green">0.49152</text>  <line x1="780.6144283311569" y1="174.6106855690664" x2="896.1782550771068" y2="333.67064736715986" style="stroke:black;stroke-width:1">23</line>  <text x="838.3963417041318" y="254.14066646811312" fill="green">0.49152</text>  <line x1="896.1782550469315" y1="666.3293527977933" x2="780.6144283891022" y2="825.3893144366732" style="stroke:black;stroke-width:1">25</line>  <text x="838.3963417180168" y="745.8593336172332" fill="green">0.49152</text>  <line x1="464.2371988316885" y1="928.186507734326" x2="277.25099932059913" y2="867.4310085827317" style="stroke:black;stroke-width:1">27</line>  <text x="370.7440990761438" y="897.8087581585289" fill="green">0.49152</text>  <text x="370.7440990761438" y="897.8087581585289" fill="green">0.49152</text>  <line x1="500" y1="500" x2="303.55061066958575" y2="357.27116400495447" style="stroke:red;stroke-width:1">0</line>  <text x="401.77530533479284" y="428.63558200247723" fill="red">0.64085</text>  <line x1="500" y1="500" x2="575.0369896222269" y2="269.05989229733745" style="stroke:red;stroke-width:1">0</line>  <text x="537.5184948111134" y="384.5299461486687" fill="red">0.64085</text>  <line x1="500" y1="500" x2="742.8247992164945" y2="500" style="stroke:red;stroke-width:1">0</line>  <text x="621.4123996082472" y="500" fill="red">0.64085</text>  <line x1="500" y1="500" x2="575.0369895480348" y2="730.9401076466136" style="stroke:red;stroke-width:1">0</line>  <text x="537.5184947740174" y="615.4700538233068" fill="red">0.64085</text>  <line x1="500" y1="500" x2="303.5506105423885" y2="642.728835864448" style="stroke:red;stroke-width:1">0</line>  <text x="401.7753052711942" y="571.364417932224" fill="red">0.64085</text>  <line x1="303.55061066958575" y1="357.27116400495447" x2="575.0369896222269" y2="269.05989229733745" style="stroke:red;stroke-width:1">1</line>  <text x="439.29380014590634" y="313.16552815114596" fill="red">0.71364</text>  <line x1="303.55061066958575" y1="357.27116400495447" x2="303.5506105423885" y2="642.728835864448" style="stroke:red;stroke-width:1">1</line>  <text x="303.5506106059871" y="499.99999993470123" fill="red">0.71364</text>  <line x1="303.55061066958575" y1="357.27116400495447" x2="142.2291235462468" y2="499.99999998420895" style="stroke:red;stroke-width:1">1</line>  <text x="222.8898671079163" y="428.63558199458174" fill="red">0.64085</text>  <line x1="303.55061066958575" y1="357.27116400495447" x2="389.442719062177" y2="159.73967665937465" style="stroke:red;stroke-width:1">1</line>  <text x="346.49666486588137" y="258.5054203321646" fill="red">0.64085</text>  <line x1="303.55061066958575" y1="357.27116400495447" x2="182.138211065723" y2="269.05989233044653" style="stroke:red;stroke-width:1">1</line>  <text x="242.84441086765435" y="313.1655281677005" fill="red">0.71364</text>  <line x1="575.0369896222269" y1="269.05989229733745" x2="742.8247992164945" y2="500" style="stroke:red;stroke-width:1">2</line>  <text x="658.9308944193607" y="384.5299461486687" fill="red">0.71364</text>  <line x1="575.0369896222269" y1="269.05989229733745" x2="389.442719062177" y2="159.73967665937465" style="stroke:red;stroke-width:1">2</line>  <text x="482.23985434220196" y="214.39978447835608" fill="red">0.64085</text>  <line x1="575.0369896222269" y1="269.05989229733745" x2="789.4427190538241" y2="289.7075551792193" style="stroke:red;stroke-width:1">2</line>  <text x="682.2398543380256" y="279.3837237382784" fill="red">0.64085</text>  <line x1="575.0369896222269" y1="269.05989229733745" x2="621.4123996540987" y2="126.33105642642232" style="stroke:red;stroke-width:1">2</line>  <text x="598.2246946381629" y="197.69547436187986" fill="red">0.71364</text>  <line x1="742.8247992164945" y1="500" x2="575.0369895480348" y2="730.9401076466136" style="stroke:red;stroke-width:1">3</line>  <text x="658.9308943822647" y="615.4700538233068" fill="red">0.71364</text>  <line x1="742.8247992164945" y1="500" x2="789.4427190538241" y2="289.7075551792193" style="stroke:red;stroke-width:1">3</line>  <text x="766.1337591351594" y="394.85377758960965" fill="red">0.64085</text>  <line x1="742.8247992164945" y1="500" x2="789.4427190224196" y2="710.2924447673013" style="stroke:red;stroke-width:1">3</line>  <text x="766.1337591194572" y="605.1462223836506" fill="red">0.64085</text>  <line x1="742.8247992164945" y1="500" x2="892.8987785097848" y2="500.0000000497567" style="stroke:red;stroke-width:1">3</line>  <text x="817.8617888631397" y="500.0000000248783" fill="red">0.71364</text>  <line x1="575.0369895480348" y1="730.9401076466136" x2="303.5506105423885" y2="642.728835864448" style="stroke:red;stroke-width:1">4</line>  <text x="439.2938000452117" y="686.8344717555308" fill="red">0.71364</text>  <line x1="575.0369895480348" y1="730.9401076466136" x2="789.4427190224196" y2="710.2924447673013" style="stroke:red;stroke-width:1">4</line>  <text x="682.2398542852272" y="720.6162762069573" fill="red">0.64085</text>  <line x1="575.0369895480348" y1="730.9401076466136" x2="389.4427190319175" y2="840.2603232591939" style="stroke:red;stroke-width:1">4</line>  <text x="482.23985428997616" y="785.6002154529037" fill="red">0.64085</text>  <line x1="575.0369895480348" y1="730.9401076466136" x2="621.4123996018875" y2="873.6689435705616" style="stroke:red;stroke-width:1">4</line>  <text x="598.2246945749612" y="802.3045256085876" fill="red">0.71364</text>  <line x1="303.5506105423885" y1="642.728835864448" x2="142.2291235462468" y2="499.99999998420895" style="stroke:red;stroke-width:1">5</line>  <text x="222.88986704431767" y="571.3644179243284" fill="red">0.64085</text>  <line x1="303.5506105423885" y1="642.728835864448" x2="389.4427190319175" y2="840.2603232591939" style="stroke:red;stroke-width:1">5</line>  <text x="346.496664787153" y="741.494579561821" fill="red">0.64085</text>  <line x1="303.5506105423885" y1="642.728835864448" x2="182.1382110340964" y2="730.940107593779" style="stroke:red;stroke-width:1">5</line>  <text x="242.84441078824244" y="686.8344717291135" fill="red">0.71364</text>  <line x1="142.2291235462468" y1="499.99999998420895" x2="182.138211065723" y2="269.05989233044653" style="stroke:red;stroke-width:1">6</line>  <text x="162.1836673059849" y="384.52994615732774" fill="red">0.64085</text>  <line x1="142.2291235462468" y1="499.99999998420895" x2="182.1382110340964" y2="730.940107593779" style="stroke:red;stroke-width:1">6</line>  <text x="162.18366729017157" y="615.4700537889939" fill="red">0.64085</text>  <line x1="389.442719062177" y1="159.73967665937465" x2="182.138211065723" y2="269.05989233044653" style="stroke:red;stroke-width:1">7</line>  <text x="285.79046506395" y="214.3997844949106" fill="red">0.64085</text>  <line x1="389.442719062177" y1="159.73967665937465" x2="621.4123996540987" y2="126.33105642642232" style="stroke:red;stroke-width:1">7</line>  <text x="505.4275593581379" y="143.0353665428985" fill="red">0.64085</text>  <line x1="789.4427190538241" y1="289.7075551792193" x2="621.4123996540987" y2="126.33105642642232" style="stroke:red;stroke-width:1">8</line>  <text x="705.4275593539614" y="208.01930580282084" fill="red">0.64085</text>  <line x1="789.4427190538241" y1="289.7075551792193" x2="892.8987785097848" y2="500.0000000497567" style="stroke:red;stroke-width:1">8</line>  <text x="841.1707487818045" y="394.853777614488" fill="red">0.64085</text>  <line x1="789.4427190224196" y1="710.2924447673013" x2="892.8987785097848" y2="500.0000000497567" style="stroke:red;stroke-width:1">9</line>  <text x="841.1707487661022" y="605.146222408529" fill="red">0.64085</text>  <line x1="789.4427190224196" y1="710.2924447673013" x2="621.4123996018875" y2="873.6689435705616" style="stroke:red;stroke-width:1">9</line>  <text x="705.4275593121536" y="791.9806941689314" fill="red">0.64085</text>  <line x1="389.4427190319175" y1="840.2603232591939" x2="621.4123996018875" y2="873.6689435705616" style="stroke:red;stroke-width:1">10</line>  <text x="505.4275593169025" y="856.9646334148778" fill="red">0.64085</text>  <line x1="389.4427190319175" y1="840.2603232591939" x2="182.1382110340964" y2="730.940107593779" style="stroke:red;stroke-width:1">10</line>  <text x="285.79046503300696" y="785.6002154264864" fill="red">0.64085</text></svg>           